<svg width="806" height="272" viewBox="0 0 806 272" fill="none" xmlns="http://www.w3.org/2000/svg">
<path d="M297.642 215H328.395V154.915H390.824V215H421.506V69.5455H390.824V129.56H328.395V69.5455H297.642V215ZM446.293 215H476.548V153.281C476.548 139.858 486.349 130.625 499.702 130.625C503.892 130.625 509.645 131.335 512.486 132.259V105.412C509.787 104.773 506.023 104.347 502.969 104.347C490.753 104.347 480.739 111.449 476.761 124.943H475.625V105.909H446.293V215ZM618.896 137.017C616.197 116.918 600.004 104.489 572.447 104.489C544.535 104.489 526.14 117.415 526.211 138.438C526.14 154.773 536.438 165.355 557.745 169.616L576.637 173.381C586.154 175.298 590.487 178.778 590.629 184.247C590.487 190.71 583.455 195.327 572.873 195.327C562.077 195.327 554.904 190.71 553.058 181.832L523.299 183.395C526.14 204.276 543.896 217.131 572.802 217.131C601.069 217.131 621.31 202.713 621.381 181.193C621.31 165.426 611.012 155.98 589.847 151.648L570.103 147.67C559.947 145.469 556.183 141.989 556.254 136.733C556.183 130.199 563.569 125.938 572.944 125.938C583.455 125.938 589.705 131.69 591.197 138.722L618.896 137.017ZM689.723 217.131C722.82 217.131 743.416 194.474 743.416 160.881C743.416 127.074 722.82 104.489 689.723 104.489C656.626 104.489 636.03 127.074 636.03 160.881C636.03 194.474 656.626 217.131 689.723 217.131ZM689.865 193.693C674.595 193.693 666.783 179.702 666.783 160.668C666.783 141.634 674.595 127.571 689.865 127.571C704.851 127.571 712.663 141.634 712.663 160.668C712.663 179.702 704.851 193.693 689.865 193.693ZM793.345 69.5455H763.089V215H793.345V69.5455Z" fill="#103687"/>
<rect x="145.911" width="69.9271" height="265.943" rx="34.9636" fill="#DD4E41"/>
<path fill-rule="evenodd" clip-rule="evenodd" d="M107.919 77.6356C48.317 77.6356 0 125.953 0 185.555V242.267L69.9271 242.267V171.789C69.9271 150.807 86.9367 133.798 107.919 133.798C128.901 133.798 145.911 150.807 145.911 171.789V242.267L215.838 242.267V185.555C215.838 125.953 167.521 77.6356 107.919 77.6356Z" fill="#FFCE42"/>
<rect width="70" height="272" rx="35" fill="#183C8A"/>
<circle cx="181.15" cy="237.312" r="34.6883" fill="#FFCE42"/>
</svg>
