<svg width="300" height="113" viewBox="0 0 300 113" fill="none" xmlns="http://www.w3.org/2000/svg">
<rect x="57.8442" y="18.748" width="18.7375" height="72.1825" rx="9.36876" fill="#FFCE42"/>
<path fill-rule="evenodd" clip-rule="evenodd" d="M47.6687 39.8232C31.6979 39.8232 18.751 52.7702 18.751 68.741V84.5077H37.4827V65.2566C37.4827 59.6342 42.0405 55.0764 47.6629 55.0764C53.2853 55.0764 57.8431 59.6342 57.8431 65.2566V84.5077H76.5865V68.741C76.5865 52.7702 63.6395 39.8232 47.6687 39.8232Z" fill="#CD3021"/>
<rect x="18.751" y="18.748" width="18.757" height="73.8264" rx="9.37852" fill="#183C8A"/>
<ellipse cx="67.2852" cy="83.1495" rx="9.29499" ry="9.41511" fill="#CD3021"/>
<path d="M105.159 52.4596V44.1298H97.8258V52.4596H93.9429V33.7998H97.8258V40.9143H105.159V33.7998H109.055V52.4596H105.159Z" fill="#183C8A"/>
<path d="M119.494 41.9903C118.034 41.9903 117.054 42.463 116.553 43.4082C116.273 43.9399 116.133 44.7585 116.133 45.8641V52.4596H112.479V38.661H115.942V41.0662C116.502 40.1463 116.99 39.5176 117.406 39.18C118.085 38.6145 118.968 38.3318 120.054 38.3318C120.122 38.3318 120.177 38.336 120.22 38.3445C120.271 38.3445 120.377 38.3487 120.538 38.3571V42.0536C120.309 42.0283 120.105 42.0114 119.927 42.003C119.749 41.9946 119.604 41.9903 119.494 41.9903Z" fill="#183C8A"/>
<path d="M132.238 39.2939C133.324 39.986 133.948 41.1759 134.109 42.8638H130.481C130.43 42.3997 130.298 42.0325 130.086 41.7625C129.687 41.273 129.008 41.0282 128.049 41.0282C127.26 41.0282 126.696 41.1506 126.356 41.3954C126.025 41.6401 125.86 41.927 125.86 42.2562C125.86 42.6697 126.038 42.9693 126.394 43.155C126.751 43.3491 128.011 43.6825 130.175 44.1551C131.618 44.4927 132.7 45.0032 133.422 45.6868C134.135 46.3789 134.491 47.2439 134.491 48.282C134.491 49.6492 133.978 50.7674 132.951 51.6367C131.932 52.4975 130.354 52.9279 128.215 52.9279C126.034 52.9279 124.421 52.4722 123.377 51.5607C122.342 50.6408 121.824 49.472 121.824 48.0541H125.503C125.579 48.6955 125.745 49.1513 126 49.4213C126.449 49.9024 127.281 50.1429 128.495 50.1429C129.208 50.1429 129.772 50.0374 130.188 49.8264C130.612 49.6154 130.825 49.299 130.825 48.877C130.825 48.4719 130.655 48.1638 130.315 47.9529C129.976 47.7419 128.716 47.379 126.534 46.8642C124.964 46.4759 123.857 45.9907 123.211 45.4083C122.566 44.8345 122.244 44.0074 122.244 42.9271C122.244 41.6528 122.745 40.5598 123.746 39.6484C124.756 38.7285 126.174 38.2685 127.998 38.2685C129.73 38.2685 131.143 38.6103 132.238 39.2939Z" fill="#183C8A"/>
<path d="M148.763 40.4079C149.934 41.868 150.519 43.5939 150.519 45.5856C150.519 47.6111 149.934 49.3454 148.763 50.7885C147.591 52.2232 145.813 52.9406 143.428 52.9406C141.043 52.9406 139.265 52.2232 138.094 50.7885C136.923 49.3454 136.337 47.6111 136.337 45.5856C136.337 43.5939 136.923 41.868 138.094 40.4079C139.265 38.9479 141.043 38.2179 143.428 38.2179C145.813 38.2179 147.591 38.9479 148.763 40.4079ZM143.416 41.2688C142.355 41.2688 141.536 41.6443 140.958 42.3954C140.39 43.1381 140.106 44.2015 140.106 45.5856C140.106 46.9697 140.39 48.0372 140.958 48.7884C141.536 49.5395 142.355 49.915 143.416 49.915C144.476 49.915 145.291 49.5395 145.86 48.7884C146.429 48.0372 146.713 46.9697 146.713 45.5856C146.713 44.2015 146.429 43.1381 145.86 42.3954C145.291 41.6443 144.476 41.2688 143.416 41.2688Z" fill="#183C8A"/>
<path d="M153.206 33.7998H156.834V52.4596H153.206V33.7998Z" fill="#183C8A"/>
<path d="M93.9429 65.5322H95.5363V70.354H101.593V65.5322H103.186V77.2015H101.593V71.7442H95.5363V77.2015H93.9429V65.5322Z" fill="#183C8A"/>
<path d="M106.872 68.6938V74.3418C106.872 74.776 106.941 75.1308 107.078 75.4062C107.332 75.9146 107.805 76.1688 108.497 76.1688C109.491 76.1688 110.167 75.724 110.527 74.8343C110.722 74.3577 110.82 73.7036 110.82 72.8722V68.6938H112.247V77.2015H110.899L110.915 75.9464C110.73 76.2694 110.5 76.5422 110.226 76.7646C109.681 77.2094 109.021 77.4319 108.244 77.4319C107.033 77.4319 106.209 77.0267 105.77 76.2165C105.533 75.7822 105.414 75.2023 105.414 74.4768V68.6938H106.872Z" fill="#183C8A"/>
<path d="M114.483 68.6938H115.894V69.9012C116.232 69.4829 116.538 69.1784 116.813 68.9877C117.284 68.6647 117.817 68.5031 118.414 68.5031C119.091 68.5031 119.635 68.67 120.047 69.0036C120.28 69.1942 120.491 69.4749 120.682 69.8456C120.999 69.3902 121.371 69.0539 121.799 68.8368C122.227 68.6144 122.708 68.5031 123.242 68.5031C124.384 68.5031 125.161 68.9162 125.573 69.7424C125.795 70.1872 125.906 70.7856 125.906 71.5376V77.2015H124.423V71.2914C124.423 70.7247 124.281 70.3355 123.995 70.1237C123.715 69.9118 123.372 69.8059 122.965 69.8059C122.405 69.8059 121.921 69.9939 121.514 70.3699C121.112 70.7459 120.912 71.3735 120.912 72.2526V77.2015H119.461V71.6489C119.461 71.0716 119.392 70.6506 119.255 70.3858C119.038 69.9886 118.634 69.79 118.042 69.79C117.503 69.79 117.011 69.9992 116.567 70.4176C116.129 70.8359 115.909 71.5932 115.909 72.6895V77.2015H114.483V68.6938Z" fill="#183C8A"/>
<path d="M129.1 74.9375C129.1 75.3506 129.251 75.6763 129.552 75.9146C129.854 76.1529 130.21 76.2721 130.623 76.2721C131.125 76.2721 131.611 76.1556 132.081 75.9226C132.874 75.536 133.27 74.9031 133.27 74.024V72.8722C133.096 72.9834 132.871 73.0761 132.596 73.1502C132.322 73.2244 132.052 73.2773 131.788 73.3091L130.924 73.4203C130.406 73.4891 130.017 73.5977 129.758 73.746C129.32 73.9949 129.1 74.3921 129.1 74.9375ZM132.557 72.046C132.884 72.0037 133.104 71.866 133.215 71.633C133.278 71.5059 133.31 71.3232 133.31 71.0848C133.31 70.5976 133.135 70.2455 132.787 70.0283C132.443 69.8059 131.949 69.6947 131.304 69.6947C130.559 69.6947 130.031 69.8959 129.719 70.2984C129.544 70.5208 129.431 70.8518 129.378 71.2914H128.046C128.073 70.2428 128.411 69.5146 129.061 69.1069C129.716 68.6938 130.475 68.4873 131.336 68.4873C132.335 68.4873 133.146 68.6779 133.77 69.0592C134.388 69.4405 134.697 70.0336 134.697 70.8386V75.7399C134.697 75.8881 134.726 76.0073 134.784 76.0973C134.848 76.1874 134.977 76.2324 135.173 76.2324C135.236 76.2324 135.308 76.2297 135.387 76.2244C135.466 76.2138 135.551 76.2006 135.64 76.1847V77.2412C135.419 77.3048 135.249 77.3445 135.133 77.3604C135.017 77.3763 134.858 77.3842 134.658 77.3842C134.166 77.3842 133.809 77.2094 133.587 76.8599C133.471 76.6746 133.389 76.4124 133.342 76.0735C133.051 76.4548 132.633 76.7858 132.089 77.0665C131.545 77.3471 130.945 77.4875 130.29 77.4875C129.502 77.4875 128.857 77.2492 128.355 76.7725C127.859 76.2906 127.61 75.6895 127.61 74.9693C127.61 74.1802 127.856 73.5686 128.347 73.1343C128.839 72.7001 129.484 72.4326 130.282 72.332L132.557 72.046Z" fill="#183C8A"/>
<path d="M137.044 68.6938H138.399V69.9012C138.801 69.4034 139.226 69.046 139.675 68.8288C140.125 68.6117 140.624 68.5031 141.174 68.5031C142.379 68.5031 143.193 68.9242 143.615 69.7662C143.848 70.2269 143.964 70.8863 143.964 71.7442V77.2015H142.513V71.8395C142.513 71.3205 142.437 70.9021 142.284 70.5844C142.03 70.0548 141.57 69.79 140.904 69.79C140.566 69.79 140.289 69.8244 140.072 69.8933C139.681 70.0098 139.337 70.2428 139.041 70.5923C138.803 70.873 138.648 71.1643 138.574 71.4661C138.505 71.7627 138.471 72.189 138.471 72.7451V77.2015H137.044V68.6938Z" fill="#183C8A"/>
<path d="M156.204 70.8783C156.944 70.8783 157.528 70.73 157.956 70.4335C158.389 70.1369 158.606 69.602 158.606 68.8288C158.606 67.9974 158.305 67.4307 157.702 67.1289C157.38 66.97 156.949 66.8906 156.41 66.8906H152.557V70.8783H156.204ZM150.98 65.5322H156.37C157.258 65.5322 157.99 65.6619 158.566 65.9214C159.66 66.4192 160.207 67.3381 160.207 68.6779C160.207 69.377 160.062 69.9489 159.771 70.3937C159.486 70.8386 159.084 71.1961 158.566 71.4661C159.021 71.6515 159.362 71.8951 159.589 72.197C159.821 72.4988 159.951 72.9887 159.977 73.6666L160.033 75.2315C160.049 75.6763 160.086 76.0073 160.144 76.2244C160.239 76.5951 160.408 76.8334 160.651 76.9394V77.2015H158.717C158.664 77.1009 158.622 76.9711 158.59 76.8123C158.558 76.6534 158.532 76.3462 158.511 75.8908L158.416 73.9446C158.379 73.182 158.096 72.6709 157.567 72.4114C157.266 72.2685 156.793 72.197 156.148 72.197H152.557V77.2015H150.98V65.5322Z" fill="#183C8A"/>
<path d="M165.867 68.5031C166.47 68.5031 167.054 68.6461 167.619 68.9321C168.185 69.2128 168.615 69.5782 168.911 70.0283C169.197 70.4573 169.387 70.9577 169.482 71.5297C169.567 71.9216 169.609 72.5465 169.609 73.4044H163.386C163.412 74.2676 163.616 74.9614 163.996 75.4857C164.377 76.0046 164.966 76.2641 165.764 76.2641C166.509 76.2641 167.104 76.0179 167.548 75.5254C167.802 75.2394 167.981 74.9084 168.087 74.5324H169.49C169.453 74.8449 169.329 75.1944 169.118 75.581C168.911 75.9623 168.679 76.2747 168.42 76.5183C167.987 76.942 167.45 77.228 166.811 77.3763C166.467 77.461 166.079 77.5034 165.645 77.5034C164.588 77.5034 163.693 77.1194 162.958 76.3515C162.223 75.5783 161.856 74.498 161.856 73.1105C161.856 71.7442 162.226 70.6347 162.966 69.7821C163.706 68.9295 164.673 68.5031 165.867 68.5031ZM168.142 72.2685C168.084 71.6489 167.95 71.1537 167.738 70.783C167.347 70.0945 166.694 69.7503 165.78 69.7503C165.125 69.7503 164.575 69.9886 164.131 70.4652C163.687 70.9366 163.452 71.5376 163.426 72.2685H168.142Z" fill="#183C8A"/>
<path d="M172.217 74.5324C172.259 75.009 172.378 75.3744 172.574 75.6286C172.933 76.0894 173.557 76.3197 174.445 76.3197C174.973 76.3197 175.438 76.2059 175.84 75.9782C176.242 75.7452 176.442 75.3877 176.442 74.9058C176.442 74.5404 176.281 74.2623 175.959 74.0717C175.753 73.9552 175.346 73.8201 174.738 73.6666L173.604 73.3806C172.88 73.2005 172.347 72.9993 172.003 72.7769C171.39 72.3903 171.083 71.8554 171.083 71.1722C171.083 70.3673 171.372 69.7159 171.948 69.2181C172.529 68.7203 173.308 68.4714 174.286 68.4714C175.565 68.4714 176.487 68.8474 177.053 69.5994C177.407 70.076 177.579 70.5897 177.568 71.1405H176.22C176.194 70.8174 176.08 70.5235 175.879 70.2587C175.552 69.8827 174.984 69.6947 174.175 69.6947C173.636 69.6947 173.226 69.798 172.946 70.0045C172.672 70.211 172.534 70.4838 172.534 70.8227C172.534 71.1934 172.717 71.49 173.081 71.7124C173.293 71.8448 173.604 71.9613 174.017 72.0619L174.96 72.2923C175.985 72.5412 176.672 72.7822 177.021 73.0152C177.576 73.3806 177.853 73.9552 177.853 74.739C177.853 75.4963 177.565 76.1503 176.989 76.701C176.419 77.2518 175.547 77.5272 174.373 77.5272C173.11 77.5272 172.214 77.2412 171.686 76.6693C171.163 76.092 170.883 75.3797 170.846 74.5324H172.217Z" fill="#183C8A"/>
<path d="M182.856 76.28C183.802 76.28 184.449 75.9226 184.798 75.2076C185.152 74.4874 185.329 73.6877 185.329 72.8086C185.329 72.0143 185.202 71.3682 184.948 70.8704C184.547 70.0866 183.854 69.6947 182.871 69.6947C181.999 69.6947 181.365 70.0283 180.969 70.6956C180.572 71.3629 180.374 72.1678 180.374 73.1105C180.374 74.0161 180.572 74.7707 180.969 75.3744C181.365 75.9782 181.994 76.28 182.856 76.28ZM182.911 68.4475C184.005 68.4475 184.93 68.8129 185.686 69.5438C186.441 70.2746 186.819 71.3496 186.819 72.7689C186.819 74.1405 186.486 75.2738 185.82 76.1688C185.154 77.0638 184.121 77.5113 182.721 77.5113C181.553 77.5113 180.625 77.1168 179.938 76.3277C179.251 75.5333 178.908 74.4689 178.908 73.1343C178.908 71.7045 179.27 70.5659 179.994 69.7185C180.718 68.8712 181.69 68.4475 182.911 68.4475Z" fill="#183C8A"/>
<path d="M189.95 68.6938V74.3418C189.95 74.776 190.019 75.1308 190.157 75.4062C190.41 75.9146 190.883 76.1688 191.576 76.1688C192.569 76.1688 193.246 75.724 193.605 74.8343C193.8 74.3577 193.898 73.7036 193.898 72.8722V68.6938H195.325V77.2015H193.978L193.993 75.9464C193.808 76.2694 193.579 76.5422 193.304 76.7646C192.759 77.2094 192.099 77.4319 191.322 77.4319C190.112 77.4319 189.287 77.0267 188.849 76.2165C188.611 75.7822 188.492 75.2023 188.492 74.4768V68.6938H189.95Z" fill="#183C8A"/>
<path d="M197.6 68.6938H198.956V70.1634C199.067 69.8774 199.339 69.5305 199.772 69.1228C200.206 68.7097 200.705 68.5031 201.271 68.5031C201.297 68.5031 201.342 68.5058 201.405 68.5111C201.469 68.5164 201.577 68.527 201.73 68.5429V70.0522C201.646 70.0363 201.567 70.0257 201.493 70.0204C201.424 70.0151 201.347 70.0124 201.263 70.0124C200.544 70.0124 199.992 70.2455 199.606 70.7115C199.22 71.1722 199.027 71.7045 199.027 72.3082V77.2015H197.6V68.6938Z" fill="#183C8A"/>
<path d="M206.241 68.4475C207.198 68.4475 207.975 68.6806 208.572 69.1466C209.174 69.6126 209.536 70.4149 209.658 71.5535H208.27C208.186 71.0292 207.993 70.595 207.692 70.2508C207.391 69.9012 206.907 69.7265 206.241 69.7265C205.332 69.7265 204.682 70.1713 204.291 71.061C204.037 71.6383 203.91 72.3505 203.91 73.1979C203.91 74.0505 204.09 74.7681 204.45 75.3506C204.809 75.9332 205.374 76.2244 206.146 76.2244C206.738 76.2244 207.206 76.0444 207.549 75.6843C207.898 75.3188 208.138 74.821 208.27 74.1908H209.658C209.499 75.3188 209.103 76.145 208.469 76.6693C207.834 77.1883 207.023 77.4478 206.035 77.4478C204.925 77.4478 204.04 77.0426 203.379 76.2324C202.719 75.4168 202.388 74.4 202.388 73.182C202.388 71.6886 202.75 70.5261 203.474 69.6947C204.198 68.8633 205.121 68.4475 206.241 68.4475Z" fill="#183C8A"/>
<path d="M214.62 68.5031C215.223 68.5031 215.807 68.6461 216.372 68.9321C216.938 69.2128 217.368 69.5782 217.664 70.0283C217.95 70.4573 218.14 70.9577 218.235 71.5297C218.32 71.9216 218.362 72.5465 218.362 73.4044H212.139C212.165 74.2676 212.369 74.9614 212.749 75.4857C213.13 76.0046 213.719 76.2641 214.517 76.2641C215.262 76.2641 215.857 76.0179 216.301 75.5254C216.554 75.2394 216.734 74.9084 216.84 74.5324H218.243C218.206 74.8449 218.082 75.1944 217.87 75.581C217.664 75.9623 217.432 76.2747 217.173 76.5183C216.739 76.942 216.203 77.228 215.564 77.3763C215.22 77.461 214.832 77.5034 214.398 77.5034C213.341 77.5034 212.446 77.1194 211.711 76.3515C210.976 75.5783 210.609 74.498 210.609 73.1105C210.609 71.7442 210.979 70.6347 211.719 69.7821C212.459 68.9295 213.426 68.5031 214.62 68.5031ZM216.895 72.2685C216.837 71.6489 216.702 71.1537 216.491 70.783C216.1 70.0945 215.447 69.7503 214.533 69.7503C213.878 69.7503 213.328 69.9886 212.884 70.4652C212.44 70.9366 212.205 71.5376 212.179 72.2685H216.895Z" fill="#183C8A"/>
<path d="M225.861 73.4362C225.898 74.0982 226.054 74.6357 226.329 75.0488C226.852 75.8219 227.774 76.2085 229.096 76.2085C229.687 76.2085 230.226 76.1238 230.713 75.9543C231.653 75.626 232.124 75.0382 232.124 74.1908C232.124 73.5553 231.926 73.1025 231.529 72.8325C231.128 72.5677 230.499 72.3373 229.642 72.1414L228.065 71.7839C227.034 71.5509 226.305 71.294 225.877 71.0134C225.137 70.5261 224.767 69.798 224.767 68.8288C224.767 67.7803 225.129 66.9197 225.853 66.2471C226.577 65.5746 227.603 65.2383 228.929 65.2383C230.15 65.2383 231.186 65.5348 232.037 66.128C232.893 66.7158 233.321 67.6585 233.321 68.9559H231.838C231.759 68.331 231.59 67.8518 231.331 67.5181C230.85 66.9091 230.034 66.6046 228.881 66.6046C227.951 66.6046 227.283 66.8005 226.876 67.1924C226.469 67.5843 226.265 68.0398 226.265 68.5587C226.265 69.1307 226.503 69.5491 226.979 69.8139C227.291 69.9833 227.996 70.1952 229.096 70.4494L230.729 70.8227C231.516 71.0028 232.124 71.249 232.552 71.5615C233.292 72.1069 233.662 72.8987 233.662 73.9366C233.662 75.2288 233.191 76.1529 232.251 76.709C231.315 77.265 230.226 77.5431 228.985 77.5431C227.536 77.5431 226.403 77.1724 225.584 76.431C224.765 75.6948 224.363 74.6966 224.379 73.4362H225.861Z" fill="#183C8A"/>
<path d="M238.838 76.28C239.784 76.28 240.432 75.9226 240.78 75.2076C241.134 74.4874 241.311 73.6877 241.311 72.8086C241.311 72.0143 241.185 71.3682 240.931 70.8704C240.529 70.0866 239.837 69.6947 238.854 69.6947C237.982 69.6947 237.348 70.0283 236.951 70.6956C236.555 71.3629 236.357 72.1678 236.357 73.1105C236.357 74.0161 236.555 74.7707 236.951 75.3744C237.348 75.9782 237.977 76.28 238.838 76.28ZM238.894 68.4475C239.988 68.4475 240.912 68.8129 241.668 69.5438C242.424 70.2746 242.802 71.3496 242.802 72.7689C242.802 74.1405 242.469 75.2738 241.803 76.1688C241.137 77.0638 240.104 77.5113 238.703 77.5113C237.535 77.5113 236.608 77.1168 235.921 76.3277C235.234 75.5333 234.89 74.4689 234.89 73.1343C234.89 71.7045 235.252 70.5659 235.976 69.7185C236.7 68.8712 237.673 68.4475 238.894 68.4475Z" fill="#183C8A"/>
<path d="M244.546 65.5322H245.973V77.2015H244.546V65.5322Z" fill="#183C8A"/>
<path d="M249.548 68.6938V74.3418C249.548 74.776 249.617 75.1308 249.754 75.4062C250.008 75.9146 250.481 76.1688 251.173 76.1688C252.167 76.1688 252.843 75.724 253.202 74.8343C253.398 74.3577 253.496 73.7036 253.496 72.8722V68.6938H254.923V77.2015H253.575L253.591 75.9464C253.406 76.2694 253.176 76.5422 252.901 76.7646C252.357 77.2094 251.696 77.4319 250.919 77.4319C249.709 77.4319 248.885 77.0267 248.446 76.2165C248.208 75.7822 248.089 75.2023 248.089 74.4768V68.6938H249.548Z" fill="#183C8A"/>
<path d="M257.444 66.3186H258.886V68.6938H260.242V69.8615H258.886V75.4142C258.886 75.7107 258.987 75.9093 259.188 76.0099C259.299 76.0682 259.484 76.0973 259.742 76.0973C259.811 76.0973 259.885 76.0973 259.964 76.0973C260.044 76.092 260.136 76.0841 260.242 76.0735V77.2015C260.078 77.2492 259.906 77.2836 259.727 77.3048C259.552 77.326 259.362 77.3365 259.156 77.3365C258.49 77.3365 258.038 77.1671 257.8 76.8281C257.562 76.4839 257.444 76.0391 257.444 75.4936V69.8615H256.294V68.6938H257.444V66.3186Z" fill="#183C8A"/>
<path d="M261.677 68.7335H263.127V77.2015H261.677V68.7335ZM261.677 65.5322H263.127V67.1527H261.677V65.5322Z" fill="#183C8A"/>
<path d="M268.661 76.28C269.607 76.28 270.254 75.9226 270.603 75.2076C270.957 74.4874 271.134 73.6877 271.134 72.8086C271.134 72.0143 271.007 71.3682 270.753 70.8704C270.352 70.0866 269.66 69.6947 268.677 69.6947C267.805 69.6947 267.17 70.0283 266.774 70.6956C266.378 71.3629 266.179 72.1678 266.179 73.1105C266.179 74.0161 266.378 74.7707 266.774 75.3744C267.17 75.9782 267.799 76.28 268.661 76.28ZM268.716 68.4475C269.81 68.4475 270.735 68.8129 271.491 69.5438C272.246 70.2746 272.624 71.3496 272.624 72.7689C272.624 74.1405 272.291 75.2738 271.625 76.1688C270.96 77.0638 269.926 77.5113 268.526 77.5113C267.358 77.5113 266.43 77.1168 265.743 76.3277C265.056 75.5333 264.713 74.4689 264.713 73.1343C264.713 71.7045 265.075 70.5659 265.799 69.7185C266.523 68.8712 267.495 68.4475 268.716 68.4475Z" fill="#183C8A"/>
<path d="M274.329 68.6938H275.684V69.9012C276.086 69.4034 276.511 69.046 276.961 68.8288C277.41 68.6117 277.909 68.5031 278.459 68.5031C279.664 68.5031 280.478 68.9242 280.9 69.7662C281.133 70.2269 281.249 70.8863 281.249 71.7442V77.2015H279.799V71.8395C279.799 71.3205 279.722 70.9021 279.569 70.5844C279.315 70.0548 278.855 69.79 278.189 69.79C277.851 69.79 277.574 69.8244 277.357 69.8933C276.966 70.0098 276.622 70.2428 276.326 70.5923C276.089 70.873 275.933 71.1643 275.859 71.4661C275.79 71.7627 275.756 72.189 275.756 72.7451V77.2015H274.329V68.6938Z" fill="#183C8A"/>
</svg>
