<svg width="1920" height="1080" viewBox="0 0 1920 1080" fill="none" xmlns="http://www.w3.org/2000/svg">
<g clip-path="url(#clip0)">
<rect width="1920" height="1080" fill="#F0F2F5"/>
<path d="M-61.3877 766.33C-61.7232 765.277 -61.142 764.152 -60.0896 763.817L183.077 686.303L270.963 962.009L25.8915 1040.13L-61.3877 766.33Z" fill="#183C8A" fill-opacity="0.04"/>
<path d="M40.5366 1086.09L362.193 983.551L450.08 1259.26L132.234 1360.58C130.13 1361.25 127.879 1360.08 127.208 1357.98L40.5366 1086.09Z" fill="#8DAAEA" fill-opacity="0.04"/>
<path d="M229.027 671.652L533.461 574.607C534.513 574.272 535.638 574.853 535.974 575.906L623.253 849.706L316.913 947.358L229.027 671.652Z" fill="#8DAAEA" fill-opacity="0.04"/>
<path d="M408.144 968.905L637.898 895.666L725.177 1169.47C725.513 1170.52 724.932 1171.64 723.879 1171.98L496.03 1244.61L408.144 968.905Z" fill="#183C8A" fill-opacity="0.04"/>
<path d="M40.8537 90.8846L436.336 -148.604L514.939 302.628L385.002 244.593L348.873 40.3569L170.702 148.88L40.8537 90.8846Z" fill="#183C8A" fill-opacity="0.04"/>
<path d="M587.961 362.822L111.218 566.2L-47.5757 79.334L126.612 157.032L199.194 377.467L413.892 285.177L587.961 362.822Z" fill="#8DAAEA" fill-opacity="0.04"/>
<path d="M1943.33 263.439C1998.57 219.893 2030 157.118 2030 89.4986C2030 -36.5692 1919.77 -139.051 1784.27 -139.051C1674.91 -139.051 1580.38 -73.6556 1548.99 23.7378C1547.47 28.4302 1550.22 33.5497 1552.92 37.6036C1555.62 41.5961 1561.79 43.5759 1566.62 43.7902C1698.25 43.7902 1805.33 139.477 1805.33 257.102C1805.33 270.267 1803.87 283.797 1800.95 297.297C1799.91 302.112 1801.09 307.201 1804.12 310.889C1807.16 314.576 1811.62 316.495 1816.2 315.887C1837.91 313.206 1858.83 308.025 1878.49 300.437L1952.8 346.512C1954.99 347.854 1957.37 348.524 1959.76 348.524C1963.27 348.524 1966.75 347.091 1969.42 344.348C1973.91 339.747 1975.09 332.464 1972.34 326.46L1943.33 263.439Z" fill="#8DAAEA" fill-opacity="0.04"/>
<path d="M1566.62 74.2656C1450.47 74.2656 1356 156.239 1356 257.105C1356 311.439 1384.28 363.182 1432.25 397.77L1413.15 449.544C1410.99 455.395 1412.39 462.13 1416.69 466.426C1419.33 469.016 1422.75 470.419 1426.18 470.419C1428.31 470.419 1430.48 469.9 1432.47 468.803L1502.09 431.017C1523.18 436.929 1544.86 439.946 1566.6 439.946C1682.75 439.946 1777.22 357.943 1777.22 257.107C1777.22 156.271 1682.78 74.2656 1566.62 74.2656Z" fill="#183C8A" fill-opacity="0.04"/>
<path d="M1397.16 872.995C1376.23 634.327 1302.37 561.278 1141.4 475.459L1212.93 1499.56L1428.32 1360.98L1397.16 872.995Z" fill="#8DAAEA" fill-opacity="0.04"/>
<path d="M2016.07 982.844L1419.5 645.961C1418.34 805.28 1437.75 949.722 1544.37 1013.33L1769.82 1141.27L2016.07 982.844Z" fill="#183C8A" fill-opacity="0.04"/>
<path d="M966.083 -13.7217C965.851 -14.2227 966.069 -14.8172 966.57 -15.0495L1120.8 -86.5579C1121.3 -86.7902 1121.89 -86.5724 1122.13 -86.0713L1248.32 186.097L1092.27 258.447L966.083 -13.7217Z" fill="#8DAAEA" fill-opacity="0.04"/>
<path d="M695.461 35.9214C695.228 35.4203 695.446 34.8258 695.947 34.5935L936 -76.7072C936.501 -76.9395 937.096 -76.7216 937.328 -76.2206L1092.46 258.365L850.592 370.507L695.461 35.9214Z" fill="#183C8A" fill-opacity="0.04"/>
<path d="M759.924 91.1509C757.601 86.1404 759.779 80.1954 764.79 77.8722L784.36 68.7984C789.37 66.4753 795.316 68.6538 797.639 73.6643L911.952 320.216L874.237 337.702L759.924 91.1509Z" fill="white" fill-opacity="0.04"/>
<rect x="892.572" y="-9.18213" width="25.8" height="43" rx="12.9" transform="rotate(-24.8748 892.572 -9.18213)" fill="white" fill-opacity="0.04"/>
<rect x="917.896" y="45.438" width="25.8" height="43" rx="12.9" transform="rotate(-24.8748 917.896 45.438)" fill="white" fill-opacity="0.04"/>
<path d="M626.817 615.156C626.206 614.236 626.456 612.995 627.377 612.384L942.103 403.465C943.023 402.854 944.264 403.105 944.875 404.026L969.517 441.147L651.458 652.277L626.817 615.156Z" fill="#183C8A" fill-opacity="0.04"/>
<path d="M656.608 660.035L974.666 448.904L1097.15 633.418C1097.76 634.339 1097.51 635.58 1096.59 636.191L781.863 845.109C780.943 845.72 779.701 845.469 779.09 844.549L656.608 660.035Z" fill="#8DAAEA" fill-opacity="0.04"/>
<path d="M979.767 621.754L995.199 592.248C995.465 591.738 995.856 591.304 996.335 590.986C996.815 590.668 997.366 590.476 997.94 590.428L1031.12 587.663C1031.6 587.624 1032.08 587.684 1032.53 587.841C1032.98 587.997 1033.39 588.247 1033.74 588.573C1034.09 588.899 1034.36 589.295 1034.55 589.734C1034.74 590.174 1034.83 590.648 1034.82 591.125L1033.91 642.507C1033.9 643.059 1033.75 643.601 1033.49 644.086C1033.22 644.57 1032.84 644.983 1032.38 645.289C1031.92 645.594 1031.39 645.783 1030.84 645.84C1030.29 645.897 1029.74 645.819 1029.23 645.614L981.522 626.506C981.079 626.328 980.679 626.06 980.346 625.718C980.013 625.376 979.756 624.968 979.59 624.52C979.425 624.072 979.355 623.595 979.386 623.119C979.416 622.642 979.547 622.178 979.768 621.755L979.767 621.754Z" fill="white" fill-opacity="0.04"/>
</g>
<defs>
<clipPath id="clip0">
<rect width="1920" height="1080" fill="white"/>
</clipPath>
</defs>
</svg>
