<svg width="1151" height="1068" viewBox="0 0 1151 1068" fill="none" xmlns="http://www.w3.org/2000/svg">
<path d="M627.817 606.156C627.206 605.236 627.456 603.995 628.377 603.384L943.103 394.465C944.023 393.854 945.264 394.105 945.875 395.026L970.517 432.147L652.458 643.277L627.817 606.156Z" fill="#183C8A" fill-opacity="0.04"/>
<path d="M657.608 651.035L975.666 439.904L1098.15 624.418C1098.76 625.339 1098.51 626.58 1097.59 627.191L782.863 836.109C781.943 836.72 780.701 836.469 780.09 835.549L657.608 651.035Z" fill="#8DAAEA" fill-opacity="0.04"/>
<path d="M980.767 612.754L996.199 583.248C996.465 582.738 996.856 582.304 997.335 581.986C997.815 581.668 998.366 581.476 998.94 581.428L1032.12 578.663C1032.6 578.624 1033.08 578.684 1033.53 578.841C1033.98 578.997 1034.39 579.247 1034.74 579.573C1035.09 579.899 1035.36 580.295 1035.55 580.734C1035.74 581.174 1035.83 581.648 1035.82 582.125L1034.91 633.507C1034.9 634.059 1034.75 634.601 1034.49 635.086C1034.22 635.57 1033.84 635.983 1033.38 636.289C1032.92 636.594 1032.39 636.783 1031.84 636.84C1031.29 636.897 1030.74 636.819 1030.23 636.614L982.522 617.506C982.079 617.328 981.679 617.06 981.346 616.718C981.013 616.376 980.756 615.968 980.59 615.52C980.425 615.072 980.355 614.595 980.386 614.119C980.416 613.642 980.547 613.178 980.768 612.755L980.767 612.754Z" fill="white" fill-opacity="0.04"/>
<line x1="318.403" y1="132.679" x2="478.403" y2="258.679" stroke="#183C8A" stroke-opacity="0.71" stroke-width="11"/>
<line x1="574.979" y1="466.664" x2="650.979" y2="628.664" stroke="#183C8A" stroke-opacity="0.71" stroke-width="11"/>
<line x1="286.676" y1="702.712" x2="167.785" y2="912.518" stroke="#183C8A" stroke-opacity="0.71" stroke-width="11"/>
<line x1="146.038" y1="381.266" x2="269.038" y2="514.266" stroke="#183C8A" stroke-opacity="0.71" stroke-width="11"/>
<line x1="673.966" y1="649.368" x2="940.966" y2="820.368" stroke="#183C8A" stroke-opacity="0.71" stroke-width="11"/>
<line x1="416.975" y1="655.5" x2="638.976" y2="654.513" stroke="#183C8A" stroke-opacity="0.71" stroke-width="11"/>
<line x1="590.653" y1="944.711" x2="657.653" y2="666.711" stroke="#183C8A" stroke-opacity="0.71" stroke-width="11"/>
<line x1="681.735" y1="626.574" x2="864.734" y2="491.574" stroke="#183C8A" stroke-opacity="0.71" stroke-width="11"/>
<line x1="668.159" y1="308.29" x2="867.159" y2="188.29" stroke="#183C8A" stroke-opacity="0.71" stroke-width="11"/>
<g filter="url(#filter0_d)">
<circle cx="303" cy="637" r="161" fill="white"/>
<circle cx="303" cy="637" r="160.5" stroke="#E9E9E9"/>
</g>
<g filter="url(#filter1_d)">
<circle cx="567" cy="348" r="150" fill="white"/>
<circle cx="567" cy="348" r="149.5" stroke="#EDECFF"/>
</g>
<path d="M569.792 325.716C591.196 285.024 586.861 265.565 569.792 235L475 407.709H524.152L569.792 325.716Z" fill="#8DAAEA"/>
<path d="M658.273 407.709L596.972 291.395C580.241 316.986 568.377 342.314 578.981 363.65L602.081 407.709H658.273Z" fill="#183C8A"/>
<path d="M482.12 446L489.08 426.2H495.26L502.19 446H496.88L495.53 441.53H488.69L487.31 446H482.12ZM491.27 433.25L489.77 438.02H494.45L493.01 433.28L492.14 430.16H492.08L491.27 433.25ZM514.082 431V434.63H509.612V440.66C509.612 441.38 509.782 441.9 510.122 442.22C510.482 442.52 510.972 442.67 511.592 442.67C512.072 442.67 512.482 442.62 512.822 442.52C513.162 442.4 513.482 442.23 513.782 442.01L514.322 445.16C513.822 445.5 513.182 445.78 512.402 446C511.642 446.2 510.872 446.3 510.092 446.3C508.372 446.3 507.012 445.94 506.012 445.22C505.032 444.48 504.532 443.24 504.512 441.5V434.63H501.932V431H504.512V427.64L509.612 426.23V431H514.082ZM526.064 431V434.63H521.594V440.66C521.594 441.38 521.764 441.9 522.104 442.22C522.464 442.52 522.954 442.67 523.574 442.67C524.054 442.67 524.464 442.62 524.804 442.52C525.144 442.4 525.464 442.23 525.764 442.01L526.304 445.16C525.804 445.5 525.164 445.78 524.384 446C523.624 446.2 522.854 446.3 522.074 446.3C520.354 446.3 518.994 445.94 517.994 445.22C517.014 444.48 516.514 443.24 516.494 441.5V434.63H513.914V431H516.494V427.64L521.594 426.23V431H526.064ZM535.74 446.3C533.24 446.3 531.26 445.62 529.8 444.26C528.36 442.9 527.64 440.98 527.64 438.5C527.64 436.86 527.97 435.46 528.63 434.3C529.31 433.12 530.23 432.23 531.39 431.63C532.57 431.01 533.94 430.7 535.5 430.7C537.08 430.7 538.42 431.01 539.52 431.63C540.64 432.23 541.49 433.07 542.07 434.15C542.65 435.21 542.94 436.43 542.94 437.81C542.94 438.19 542.92 438.56 542.88 438.92C542.86 439.26 542.84 439.55 542.82 439.79H532.59C532.73 440.83 533.07 441.58 533.61 442.04C534.15 442.48 534.86 442.7 535.74 442.7C536.5 442.7 537.1 442.55 537.54 442.25C538 441.95 538.34 441.53 538.56 440.99L542.64 442.34C542.36 443.2 541.87 443.93 541.17 444.53C540.49 445.11 539.67 445.55 538.71 445.85C537.77 446.15 536.78 446.3 535.74 446.3ZM535.5 434.27C533.88 434.27 532.92 435.2 532.62 437.06H538.11C537.89 435.2 537.02 434.27 535.5 434.27ZM545.793 446V431H550.353L550.503 434.03C550.963 432.93 551.633 432.1 552.513 431.54C553.393 430.98 554.433 430.7 555.633 430.7C557.173 430.7 558.423 431.15 559.383 432.05C560.343 432.95 560.823 434.27 560.823 436.01V446H555.723V437.36C555.723 436.32 555.523 435.6 555.123 435.2C554.723 434.8 554.213 434.6 553.593 434.6C552.853 434.6 552.213 434.86 551.673 435.38C551.153 435.9 550.893 436.79 550.893 438.05V446H545.793ZM569.916 446.3C568.056 446.3 566.556 445.62 565.416 444.26C564.296 442.9 563.736 441 563.736 438.56C563.736 436.88 563.996 435.46 564.516 434.3C565.056 433.12 565.796 432.23 566.736 431.63C567.696 431.01 568.796 430.7 570.036 430.7C571.096 430.7 571.996 430.96 572.736 431.48C573.496 432 574.066 432.69 574.446 433.55V424.64H579.546V446H574.986L574.806 443.06C574.386 444.06 573.746 444.85 572.886 445.43C572.046 446.01 571.056 446.3 569.916 446.3ZM571.686 442.55C572.526 442.55 573.196 442.2 573.696 441.5C574.196 440.8 574.446 439.77 574.446 438.41C574.446 437.15 574.206 436.18 573.726 435.5C573.246 434.8 572.576 434.45 571.716 434.45C570.836 434.45 570.136 434.78 569.616 435.44C569.116 436.08 568.866 437.1 568.866 438.5C568.866 439.9 569.116 440.93 569.616 441.59C570.116 442.23 570.806 442.55 571.686 442.55ZM591.575 436.49C591.575 435.79 591.375 435.24 590.975 434.84C590.595 434.42 590.075 434.21 589.415 434.21C588.755 434.21 588.185 434.38 587.705 434.72C587.245 435.04 586.925 435.62 586.745 436.46L582.425 435.44C582.705 434 583.445 432.85 584.645 431.99C585.845 431.13 587.535 430.7 589.715 430.7C591.915 430.7 593.615 431.19 594.815 432.17C596.035 433.13 596.645 434.54 596.645 436.4V441.89C596.645 442.67 596.995 443.06 597.695 443.06C598.055 443.06 598.345 443.02 598.565 442.94L598.265 445.85C597.665 446.13 596.935 446.27 596.075 446.27C595.135 446.27 594.325 446.09 593.645 445.73C592.965 445.35 592.505 444.78 592.265 444.02C591.845 444.8 591.175 445.38 590.255 445.76C589.355 446.12 588.395 446.3 587.375 446.3C585.835 446.3 584.605 445.95 583.685 445.25C582.785 444.53 582.335 443.5 582.335 442.16C582.335 441.08 582.655 440.19 583.295 439.49C583.955 438.77 584.985 438.27 586.385 437.99L591.575 436.91V436.49ZM587.375 441.68C587.375 442.12 587.535 442.45 587.855 442.67C588.175 442.89 588.555 443 588.995 443C589.675 443 590.275 442.8 590.795 442.4C591.315 441.98 591.575 441.33 591.575 440.45V439.61L589.145 440.12C588.545 440.24 588.095 440.42 587.795 440.66C587.515 440.88 587.375 441.22 587.375 441.68ZM600.578 446V431H605.138L605.288 434.03C605.748 432.93 606.418 432.1 607.298 431.54C608.178 430.98 609.218 430.7 610.418 430.7C611.958 430.7 613.208 431.15 614.168 432.05C615.128 432.95 615.608 434.27 615.608 436.01V446H610.508V437.36C610.508 436.32 610.308 435.6 609.908 435.2C609.508 434.8 608.998 434.6 608.378 434.6C607.638 434.6 606.998 434.86 606.458 435.38C605.938 435.9 605.678 436.79 605.678 438.05V446H600.578ZM626.292 430.7C627.812 430.7 629.072 430.92 630.072 431.36C631.092 431.8 631.882 432.37 632.442 433.07C633.002 433.77 633.362 434.53 633.522 435.35L628.812 436.91C628.692 436.05 628.442 435.41 628.062 434.99C627.682 434.55 627.142 434.33 626.442 434.33C625.482 434.33 624.752 434.67 624.252 435.35C623.772 436.03 623.532 437.1 623.532 438.56C623.532 440.04 623.792 441.1 624.312 441.74C624.852 442.36 625.572 442.67 626.472 442.67C627.892 442.67 628.722 441.86 628.962 440.24L633.552 441.71C633.332 443.01 632.602 444.1 631.362 444.98C630.142 445.86 628.522 446.3 626.502 446.3C624.042 446.3 622.072 445.62 620.592 444.26C619.132 442.88 618.402 440.96 618.402 438.5C618.402 436.86 618.732 435.46 619.392 434.3C620.072 433.14 621.002 432.25 622.182 431.63C623.362 431.01 624.732 430.7 626.292 430.7ZM643.523 446.3C641.023 446.3 639.043 445.62 637.583 444.26C636.143 442.9 635.423 440.98 635.423 438.5C635.423 436.86 635.753 435.46 636.413 434.3C637.093 433.12 638.013 432.23 639.173 431.63C640.353 431.01 641.723 430.7 643.283 430.7C644.863 430.7 646.203 431.01 647.303 431.63C648.423 432.23 649.273 433.07 649.853 434.15C650.433 435.21 650.723 436.43 650.723 437.81C650.723 438.19 650.703 438.56 650.663 438.92C650.643 439.26 650.623 439.55 650.603 439.79H640.373C640.513 440.83 640.853 441.58 641.393 442.04C641.933 442.48 642.643 442.7 643.523 442.7C644.283 442.7 644.883 442.55 645.323 442.25C645.783 441.95 646.123 441.53 646.343 440.99L650.423 442.34C650.143 443.2 649.653 443.93 648.953 444.53C648.273 445.11 647.453 445.55 646.493 445.85C645.553 446.15 644.563 446.3 643.523 446.3ZM643.283 434.27C641.663 434.27 640.703 435.2 640.403 437.06H645.893C645.673 435.2 644.803 434.27 643.283 434.27Z" fill="#4867AA"/>
<g filter="url(#filter2_d)">
<circle cx="892" cy="152" r="102" fill="white"/>
<circle cx="892" cy="152" r="101.5" stroke="#EDECFF"/>
</g>
<g filter="url(#filter3_d)">
<circle cx="152" cy="944" r="102" fill="white"/>
<circle cx="152" cy="944" r="101.5" stroke="#EDECFF"/>
</g>
<path d="M182.301 889.484H174.844V885.594C174.844 884.161 173.683 883 172.25 883C170.817 883 169.656 884.161 169.656 885.594V889.484H133.344V885.594C133.344 884.161 132.183 883 130.75 883C129.317 883 128.156 884.161 128.156 885.594V889.484H120.699C114.8 889.484 110 894.284 110 900.184V955.301C110 961.2 114.8 966 120.699 966H182.301C188.2 966 193 961.2 193 955.301V900.184C193 894.284 188.2 889.484 182.301 889.484ZM187.812 955.301C187.812 958.345 185.345 960.812 182.301 960.812H120.699C117.655 960.812 115.188 958.345 115.188 955.301V912.342C115.188 911.894 115.55 911.531 115.998 911.531H187.002C187.45 911.531 187.812 911.894 187.812 912.342V955.301Z" fill="#4867AA"/>
<rect x="120" y="915" width="18" height="18" fill="#8DAAEA"/>
<rect x="120" y="938" width="18" height="18" fill="#8DAAEA"/>
<rect x="143" y="915" width="18" height="18" fill="#8DAAEA"/>
<rect x="143" y="938" width="18" height="18" fill="#8DAAEA"/>
<rect x="166" y="915" width="18" height="18" fill="#4867AA"/>
<rect x="166" y="938" width="18" height="18" fill="#8DAAEA"/>
<path d="M823.225 187.25C824.892 187.25 826.325 187.592 827.525 188.275C828.742 188.942 829.675 189.908 830.325 191.175C830.975 192.442 831.3 193.967 831.3 195.75C831.3 197.533 830.975 199.058 830.325 200.325C829.675 201.592 828.742 202.567 827.525 203.25C826.325 203.917 824.892 204.25 823.225 204.25C821.542 204.25 820.092 203.917 818.875 203.25C817.675 202.567 816.75 201.592 816.1 200.325C815.45 199.058 815.125 197.533 815.125 195.75C815.125 193.967 815.45 192.442 816.1 191.175C816.75 189.908 817.675 188.942 818.875 188.275C820.092 187.592 821.542 187.25 823.225 187.25ZM823.225 190.625C822.025 190.625 821.108 191.058 820.475 191.925C819.842 192.775 819.525 194.05 819.525 195.75C819.525 197.45 819.842 198.733 820.475 199.6C821.108 200.45 822.025 200.875 823.225 200.875C824.408 200.875 825.317 200.45 825.95 199.6C826.583 198.733 826.9 197.45 826.9 195.75C826.9 194.05 826.583 192.775 825.95 191.925C825.317 191.058 824.408 190.625 823.225 190.625ZM833.909 204V191.5H837.659L837.834 194.2C838.134 193.283 838.592 192.567 839.209 192.05C839.842 191.517 840.65 191.25 841.634 191.25C841.95 191.25 842.217 191.283 842.434 191.35C842.667 191.4 842.85 191.458 842.984 191.525L842.559 195.025C842.392 194.975 842.175 194.925 841.909 194.875C841.659 194.825 841.35 194.8 840.984 194.8C840.217 194.8 839.55 195.042 838.984 195.525C838.434 196.008 838.159 196.733 838.159 197.7V204H833.909ZM852.207 201.225C853.657 201.225 854.765 201.533 855.532 202.15C856.315 202.75 856.707 203.617 856.707 204.75C856.707 206.317 856.082 207.475 854.832 208.225C853.599 208.992 851.932 209.375 849.832 209.375C847.565 209.375 845.932 209.092 844.932 208.525C843.932 207.958 843.432 207.192 843.432 206.225C843.432 205.658 843.615 205.175 843.982 204.775C844.365 204.375 844.974 204.1 845.807 203.95C844.59 203.5 843.982 202.658 843.982 201.425C843.982 200.842 844.157 200.333 844.507 199.9C844.857 199.45 845.34 199.125 845.957 198.925C844.624 198.192 843.957 197.05 843.957 195.5C843.957 194.15 844.482 193.108 845.532 192.375C846.599 191.625 848.09 191.25 850.007 191.25C850.974 191.25 851.849 191.35 852.632 191.55C852.699 190.95 852.865 190.392 853.132 189.875C853.415 189.358 853.799 188.942 854.282 188.625C854.782 188.292 855.39 188.125 856.107 188.125C856.157 188.125 856.215 188.133 856.282 188.15C856.349 188.15 856.424 188.15 856.507 188.15L856.857 191C856.674 190.95 856.474 190.925 856.257 190.925C855.674 190.925 855.207 191.042 854.857 191.275C854.507 191.508 854.274 191.808 854.157 192.175C855.407 192.908 856.032 194.017 856.032 195.5C856.032 196.85 855.499 197.892 854.432 198.625C853.382 199.358 851.907 199.725 850.007 199.725C849.14 199.725 848.357 199.65 847.657 199.5C847.107 199.667 846.832 199.958 846.832 200.375C846.832 200.942 847.299 201.225 848.232 201.225H852.207ZM850.007 193.675C849.457 193.675 849.007 193.833 848.657 194.15C848.324 194.467 848.157 194.917 848.157 195.5C848.157 196.067 848.324 196.508 848.657 196.825C849.007 197.142 849.457 197.3 850.007 197.3C850.54 197.3 850.982 197.142 851.332 196.825C851.682 196.508 851.857 196.067 851.857 195.5C851.857 194.917 851.682 194.467 851.332 194.15C850.982 193.833 850.54 193.675 850.007 193.675ZM849.857 206.625C851.057 206.625 851.949 206.5 852.532 206.25C853.132 206.017 853.432 205.717 853.432 205.35C853.432 205.1 853.332 204.9 853.132 204.75C852.949 204.617 852.624 204.55 852.157 204.55H847.682C847.365 204.55 847.107 204.633 846.907 204.8C846.724 204.967 846.632 205.175 846.632 205.425C846.632 205.808 846.915 206.1 847.482 206.3C848.049 206.517 848.84 206.625 849.857 206.625ZM865.371 196.075C865.371 195.492 865.204 195.033 864.871 194.7C864.554 194.35 864.121 194.175 863.571 194.175C863.021 194.175 862.546 194.317 862.146 194.6C861.763 194.867 861.496 195.35 861.346 196.05L857.746 195.2C857.979 194 858.596 193.042 859.596 192.325C860.596 191.608 862.004 191.25 863.821 191.25C865.654 191.25 867.071 191.658 868.071 192.475C869.088 193.275 869.596 194.45 869.596 196V200.575C869.596 201.225 869.888 201.55 870.471 201.55C870.771 201.55 871.013 201.517 871.196 201.45L870.946 203.875C870.446 204.108 869.838 204.225 869.121 204.225C868.338 204.225 867.663 204.075 867.096 203.775C866.529 203.458 866.146 202.983 865.946 202.35C865.596 203 865.038 203.483 864.271 203.8C863.521 204.1 862.721 204.25 861.871 204.25C860.588 204.25 859.563 203.958 858.796 203.375C858.046 202.775 857.671 201.917 857.671 200.8C857.671 199.9 857.938 199.158 858.471 198.575C859.021 197.975 859.879 197.558 861.046 197.325L865.371 196.425V196.075ZM861.871 200.4C861.871 200.767 862.004 201.042 862.271 201.225C862.538 201.408 862.854 201.5 863.221 201.5C863.788 201.5 864.288 201.333 864.721 201C865.154 200.65 865.371 200.108 865.371 199.375V198.675L863.346 199.1C862.846 199.2 862.471 199.35 862.221 199.55C861.988 199.733 861.871 200.017 861.871 200.4ZM872.874 204V191.5H876.674L876.799 194.025C877.182 193.108 877.74 192.417 878.474 191.95C879.207 191.483 880.074 191.25 881.074 191.25C882.357 191.25 883.399 191.625 884.199 192.375C884.999 193.125 885.399 194.225 885.399 195.675V204H881.149V196.8C881.149 195.933 880.982 195.333 880.649 195C880.315 194.667 879.89 194.5 879.374 194.5C878.757 194.5 878.224 194.717 877.774 195.15C877.34 195.583 877.124 196.325 877.124 197.375V204H872.874ZM890.502 190.05C889.635 190.05 889.002 189.892 888.602 189.575C888.218 189.242 888.027 188.725 888.027 188.025C888.027 187.308 888.218 186.792 888.602 186.475C889.002 186.142 889.635 185.975 890.502 185.975C891.352 185.975 891.977 186.142 892.377 186.475C892.777 186.792 892.977 187.308 892.977 188.025C892.977 188.725 892.777 189.242 892.377 189.575C891.977 189.892 891.352 190.05 890.502 190.05ZM892.627 191.5V204H888.377V191.5H892.627ZM895.002 204V201.4L899.977 195.75L901.302 194.425L899.327 194.475H895.052V191.5H906.002V194.1L901.102 199.7L899.727 201.075L901.927 201.025H906.227V204H895.002ZM915.518 196.075C915.518 195.492 915.351 195.033 915.018 194.7C914.701 194.35 914.268 194.175 913.718 194.175C913.168 194.175 912.693 194.317 912.293 194.6C911.909 194.867 911.643 195.35 911.493 196.05L907.893 195.2C908.126 194 908.743 193.042 909.743 192.325C910.743 191.608 912.151 191.25 913.968 191.25C915.801 191.25 917.218 191.658 918.218 192.475C919.234 193.275 919.743 194.45 919.743 196V200.575C919.743 201.225 920.034 201.55 920.618 201.55C920.918 201.55 921.159 201.517 921.343 201.45L921.093 203.875C920.593 204.108 919.984 204.225 919.268 204.225C918.484 204.225 917.809 204.075 917.243 203.775C916.676 203.458 916.293 202.983 916.093 202.35C915.743 203 915.184 203.483 914.418 203.8C913.668 204.1 912.868 204.25 912.018 204.25C910.734 204.25 909.709 203.958 908.943 203.375C908.193 202.775 907.818 201.917 907.818 200.8C907.818 199.9 908.084 199.158 908.618 198.575C909.168 197.975 910.026 197.558 911.193 197.325L915.518 196.425V196.075ZM912.018 200.4C912.018 200.767 912.151 201.042 912.418 201.225C912.684 201.408 913.001 201.5 913.368 201.5C913.934 201.5 914.434 201.333 914.868 201C915.301 200.65 915.518 200.108 915.518 199.375V198.675L913.493 199.1C912.993 199.2 912.618 199.35 912.368 199.55C912.134 199.733 912.018 200.017 912.018 200.4ZM931.482 191.5V194.525H927.757V199.55C927.757 200.15 927.899 200.583 928.182 200.85C928.482 201.1 928.89 201.225 929.407 201.225C929.807 201.225 930.149 201.183 930.432 201.1C930.715 201 930.982 200.858 931.232 200.675L931.682 203.3C931.265 203.583 930.732 203.817 930.082 204C929.449 204.167 928.807 204.25 928.157 204.25C926.724 204.25 925.59 203.95 924.757 203.35C923.94 202.733 923.524 201.7 923.507 200.25V194.525H921.357V191.5H923.507V188.7L927.757 187.525V191.5H931.482ZM935.57 190.05C934.703 190.05 934.07 189.892 933.67 189.575C933.287 189.242 933.095 188.725 933.095 188.025C933.095 187.308 933.287 186.792 933.67 186.475C934.07 186.142 934.703 185.975 935.57 185.975C936.42 185.975 937.045 186.142 937.445 186.475C937.845 186.792 938.045 187.308 938.045 188.025C938.045 188.725 937.845 189.242 937.445 189.575C937.045 189.892 936.42 190.05 935.57 190.05ZM937.695 191.5V204H933.445V191.5H937.695ZM946.67 191.25C947.987 191.25 949.137 191.508 950.12 192.025C951.12 192.542 951.895 193.283 952.445 194.25C953.012 195.217 953.295 196.383 953.295 197.75C953.295 199.117 953.012 200.283 952.445 201.25C951.895 202.217 951.12 202.958 950.12 203.475C949.137 203.992 947.987 204.25 946.67 204.25C945.37 204.25 944.22 203.992 943.22 203.475C942.237 202.958 941.462 202.217 940.895 201.25C940.345 200.283 940.07 199.117 940.07 197.75C940.07 196.383 940.345 195.217 940.895 194.25C941.462 193.283 942.237 192.542 943.22 192.025C944.22 191.508 945.37 191.25 946.67 191.25ZM946.67 194.275C945.937 194.275 945.362 194.55 944.945 195.1C944.545 195.633 944.345 196.517 944.345 197.75C944.345 198.967 944.545 199.85 944.945 200.4C945.362 200.95 945.937 201.225 946.67 201.225C947.42 201.225 947.995 200.95 948.395 200.4C948.812 199.85 949.02 198.967 949.02 197.75C949.02 196.517 948.812 195.633 948.395 195.1C947.995 194.55 947.42 194.275 946.67 194.275ZM955.686 204V191.5H959.486L959.611 194.025C959.994 193.108 960.553 192.417 961.286 191.95C962.019 191.483 962.886 191.25 963.886 191.25C965.169 191.25 966.211 191.625 967.011 192.375C967.811 193.125 968.211 194.225 968.211 195.675V204H963.961V196.8C963.961 195.933 963.794 195.333 963.461 195C963.128 194.667 962.703 194.5 962.186 194.5C961.569 194.5 961.036 194.717 960.586 195.15C960.153 195.583 959.936 196.325 959.936 197.375V204H955.686Z" fill="#4867AA"/>
<path d="M893.934 118.223C893.934 117.671 894.381 117.223 894.934 117.223H925.378C925.93 117.223 926.378 117.671 926.378 118.223V174.001H893.934V118.223Z" fill="#8DAAEA"/>
<path d="M856.623 105.245C856.623 104.693 857.071 104.245 857.623 104.245H905.912C906.464 104.245 906.912 104.693 906.912 105.245V174.001H856.623V105.245Z" fill="#183C8A"/>
<path d="M863.272 121.035C863.272 118.869 865.028 117.114 867.193 117.114C869.359 117.114 871.114 118.869 871.114 121.035V170.263H863.272V121.035Z" fill="white"/>
<rect x="893.934" y="112.355" width="4.86667" height="8.11111" rx="2.43333" fill="white"/>
<rect x="893.934" y="123.711" width="4.86667" height="8.11111" rx="2.43333" fill="white"/>
<g filter="url(#filter4_d)">
<circle cx="275" cy="107" r="105" fill="white"/>
<circle cx="275" cy="107" r="104.5" stroke="#EDECFF"/>
</g>
<path d="M217.2 166.662L212.26 149.502H217.018L219.93 163.048L222.998 149.502H227.054L230.2 163.022L233.06 149.502H237.662L232.696 166.662H227.834L225.806 158.342L225.026 154.156H224.974L224.22 158.342L222.218 166.662H217.2ZM244.327 153.402C245.696 153.402 246.892 153.671 247.915 154.208C248.955 154.745 249.761 155.517 250.333 156.522C250.922 157.527 251.217 158.741 251.217 160.162C251.217 161.583 250.922 162.797 250.333 163.802C249.761 164.807 248.955 165.579 247.915 166.116C246.892 166.653 245.696 166.922 244.327 166.922C242.975 166.922 241.779 166.653 240.739 166.116C239.716 165.579 238.91 164.807 238.321 163.802C237.749 162.797 237.463 161.583 237.463 160.162C237.463 158.741 237.749 157.527 238.321 156.522C238.91 155.517 239.716 154.745 240.739 154.208C241.779 153.671 242.975 153.402 244.327 153.402ZM244.327 156.548C243.564 156.548 242.966 156.834 242.533 157.406C242.117 157.961 241.909 158.879 241.909 160.162C241.909 161.427 242.117 162.346 242.533 162.918C242.966 163.49 243.564 163.776 244.327 163.776C245.107 163.776 245.705 163.49 246.121 162.918C246.554 162.346 246.771 161.427 246.771 160.162C246.771 158.879 246.554 157.961 246.121 157.406C245.705 156.834 245.107 156.548 244.327 156.548ZM253.703 166.662V153.662H257.603L257.785 156.47C258.097 155.517 258.574 154.771 259.215 154.234C259.874 153.679 260.715 153.402 261.737 153.402C262.067 153.402 262.344 153.437 262.569 153.506C262.812 153.558 263.003 153.619 263.141 153.688L262.699 157.328C262.526 157.276 262.301 157.224 262.023 157.172C261.763 157.12 261.443 157.094 261.061 157.094C260.264 157.094 259.571 157.345 258.981 157.848C258.409 158.351 258.123 159.105 258.123 160.11V166.662H253.703ZM269.295 148.15V159.122L274.235 153.662H279.149L274.365 158.758L279.435 166.662H274.547L271.401 161.332L269.295 163.672V166.662H264.875V148.15H269.295ZM290.045 153.662V156.808H286.353V166.662H281.933V156.808H279.853V153.662H281.933V152.466C281.933 151.357 282.167 150.464 282.635 149.788C283.12 149.095 283.753 148.592 284.533 148.28C285.33 147.951 286.188 147.786 287.107 147.786C287.818 147.786 288.442 147.864 288.979 148.02C289.516 148.159 289.915 148.323 290.175 148.514L289.733 151.27C289.542 151.166 289.326 151.079 289.083 151.01C288.84 150.923 288.537 150.88 288.173 150.88C287.549 150.88 287.046 151.019 286.665 151.296C286.284 151.573 286.093 152.059 286.093 152.752V153.662H290.045ZM296.207 148.15V162.242C296.207 162.814 296.302 163.221 296.493 163.464C296.684 163.707 297.004 163.828 297.455 163.828C297.715 163.828 297.932 163.811 298.105 163.776C298.278 163.741 298.486 163.689 298.729 163.62L298.443 166.272C298.131 166.463 297.724 166.619 297.221 166.74C296.718 166.861 296.224 166.922 295.739 166.922C294.352 166.922 293.347 166.601 292.723 165.96C292.099 165.319 291.787 164.27 291.787 162.814V148.15H296.207ZM306.534 153.402C307.903 153.402 309.099 153.671 310.122 154.208C311.162 154.745 311.968 155.517 312.54 156.522C313.129 157.527 313.424 158.741 313.424 160.162C313.424 161.583 313.129 162.797 312.54 163.802C311.968 164.807 311.162 165.579 310.122 166.116C309.099 166.653 307.903 166.922 306.534 166.922C305.182 166.922 303.986 166.653 302.946 166.116C301.923 165.579 301.117 164.807 300.528 163.802C299.956 162.797 299.67 161.583 299.67 160.162C299.67 158.741 299.956 157.527 300.528 156.522C301.117 155.517 301.923 154.745 302.946 154.208C303.986 153.671 305.182 153.402 306.534 153.402ZM306.534 156.548C305.771 156.548 305.173 156.834 304.74 157.406C304.324 157.961 304.116 158.879 304.116 160.162C304.116 161.427 304.324 162.346 304.74 162.918C305.173 163.49 305.771 163.776 306.534 163.776C307.314 163.776 307.912 163.49 308.328 162.918C308.761 162.346 308.978 161.427 308.978 160.162C308.978 158.879 308.761 157.961 308.328 157.406C307.912 156.834 307.314 156.548 306.534 156.548ZM332.61 153.662H337.238L333.312 166.662H328.008L325.642 158.68L323.354 166.662H318.076L314.124 153.662H318.778L320.962 163.256L323.51 153.662H327.878L330.4 163.256L332.61 153.662Z" fill="#4867AA"/>
<path d="M234 51C234 49.8954 234.895 49 236 49H267.371V86.5422H234V51Z" fill="#183C8A"/>
<path d="M234 92.7993H277.799V130.341H238C235.791 130.341 234 128.551 234 126.341V92.7993Z" fill="#8DAAEA"/>
<path d="M273.628 49H313.341C314.446 49 315.341 49.8954 315.341 51V86.5422H273.628V49Z" fill="#8DAAEA"/>
<path d="M284.056 92.7998H315.341V128.342C315.341 129.447 314.446 130.342 313.341 130.342H284.056V92.7998Z" fill="#183C8A"/>
<path d="M197.93 714.9C199.77 714.9 201.39 715.19 202.79 715.77C204.21 716.33 205.44 717.16 206.48 718.26L203.99 721.59C203.13 720.69 202.2 720.02 201.2 719.58C200.22 719.12 199.1 718.89 197.84 718.89C196.74 718.89 195.95 719.07 195.47 719.43C194.99 719.79 194.75 720.23 194.75 720.75C194.75 721.17 194.94 721.53 195.32 721.83C195.72 722.11 196.36 722.35 197.24 722.55L200.57 723.3C202.55 723.76 204 724.43 204.92 725.31C205.84 726.19 206.3 727.36 206.3 728.82C206.3 730.22 205.94 731.41 205.22 732.39C204.5 733.35 203.51 734.08 202.25 734.58C200.99 735.06 199.55 735.3 197.93 735.3C195.93 735.3 194.1 734.98 192.44 734.34C190.78 733.68 189.46 732.82 188.48 731.76L190.97 728.31C191.71 729.17 192.71 729.89 193.97 730.47C195.23 731.03 196.53 731.31 197.87 731.31C199.95 731.31 200.99 730.7 200.99 729.48C200.99 729.06 200.83 728.71 200.51 728.43C200.21 728.13 199.65 727.88 198.83 727.68L195.17 726.87C194.05 726.63 193.05 726.29 192.17 725.85C191.31 725.41 190.63 724.83 190.13 724.11C189.63 723.37 189.38 722.45 189.38 721.35C189.38 720.11 189.72 719.01 190.4 718.05C191.08 717.07 192.06 716.3 193.34 715.74C194.62 715.18 196.15 714.9 197.93 714.9ZM209.107 735V720H213.667L213.817 722.91C214.297 721.85 214.967 721.05 215.827 720.51C216.707 719.97 217.717 719.7 218.857 719.7C219.957 719.7 220.917 719.95 221.737 720.45C222.577 720.95 223.197 721.69 223.597 722.67C224.057 721.69 224.737 720.95 225.637 720.45C226.557 719.95 227.557 719.7 228.637 719.7C230.117 719.7 231.337 720.15 232.297 721.05C233.277 721.93 233.767 723.25 233.767 725.01V735H228.667V726.18C228.667 725.22 228.477 724.55 228.097 724.17C227.717 723.79 227.227 723.6 226.627 723.6C225.867 723.6 225.237 723.89 224.737 724.47C224.237 725.03 223.987 725.87 223.987 726.99V735H218.887V726.18C218.887 725.22 218.697 724.55 218.317 724.17C217.937 723.79 217.447 723.6 216.847 723.6C216.147 723.6 215.527 723.87 214.987 724.41C214.467 724.95 214.207 725.84 214.207 727.08V735H209.107ZM245.72 725.49C245.72 724.79 245.52 724.24 245.12 723.84C244.74 723.42 244.22 723.21 243.56 723.21C242.9 723.21 242.33 723.38 241.85 723.72C241.39 724.04 241.07 724.62 240.89 725.46L236.57 724.44C236.85 723 237.59 721.85 238.79 720.99C239.99 720.13 241.68 719.7 243.86 719.7C246.06 719.7 247.76 720.19 248.96 721.17C250.18 722.13 250.79 723.54 250.79 725.4V730.89C250.79 731.67 251.14 732.06 251.84 732.06C252.2 732.06 252.49 732.02 252.71 731.94L252.41 734.85C251.81 735.13 251.08 735.27 250.22 735.27C249.28 735.27 248.47 735.09 247.79 734.73C247.11 734.35 246.65 733.78 246.41 733.02C245.99 733.8 245.32 734.38 244.4 734.76C243.5 735.12 242.54 735.3 241.52 735.3C239.98 735.3 238.75 734.95 237.83 734.25C236.93 733.53 236.48 732.5 236.48 731.16C236.48 730.08 236.8 729.19 237.44 728.49C238.1 727.77 239.13 727.27 240.53 726.99L245.72 725.91V725.49ZM241.52 730.68C241.52 731.12 241.68 731.45 242 731.67C242.32 731.89 242.7 732 243.14 732C243.82 732 244.42 731.8 244.94 731.4C245.46 730.98 245.72 730.33 245.72 729.45V728.61L243.29 729.12C242.69 729.24 242.24 729.42 241.94 729.66C241.66 729.88 241.52 730.22 241.52 730.68ZM254.723 735V720H259.223L259.433 723.24C259.793 722.14 260.343 721.28 261.083 720.66C261.843 720.02 262.813 719.7 263.993 719.7C264.373 719.7 264.693 719.74 264.953 719.82C265.233 719.88 265.453 719.95 265.613 720.03L265.103 724.23C264.903 724.17 264.643 724.11 264.323 724.05C264.023 723.99 263.653 723.96 263.213 723.96C262.293 723.96 261.493 724.25 260.813 724.83C260.153 725.41 259.823 726.28 259.823 727.44V735H254.723ZM278.002 720V723.63H273.532V729.66C273.532 730.38 273.702 730.9 274.042 731.22C274.402 731.52 274.892 731.67 275.512 731.67C275.992 731.67 276.402 731.62 276.742 731.52C277.082 731.4 277.402 731.23 277.702 731.01L278.242 734.16C277.742 734.5 277.102 734.78 276.322 735C275.562 735.2 274.792 735.3 274.012 735.3C272.292 735.3 270.932 734.94 269.932 734.22C268.952 733.48 268.452 732.24 268.432 730.5V723.63H265.852V720H268.432V716.64L273.532 715.23V720H278.002ZM306.851 729.33C306.271 731.41 305.201 732.93 303.641 733.89C302.101 734.83 300.281 735.3 298.181 735.3C296.161 735.3 294.421 734.9 292.961 734.1C291.521 733.28 290.411 732.11 289.631 730.59C288.851 729.07 288.461 727.24 288.461 725.1C288.461 722.96 288.851 721.13 289.631 719.61C290.411 718.09 291.521 716.93 292.961 716.13C294.421 715.31 296.151 714.9 298.151 714.9C300.211 714.9 302.011 715.34 303.551 716.22C305.091 717.1 306.111 718.48 306.611 720.36L302.081 722.19C301.801 720.97 301.341 720.13 300.701 719.67C300.081 719.19 299.291 718.95 298.331 718.95C296.891 718.95 295.761 719.47 294.941 720.51C294.141 721.55 293.741 723.08 293.741 725.1C293.741 727.12 294.121 728.65 294.881 729.69C295.661 730.73 296.821 731.25 298.361 731.25C299.321 731.25 300.131 730.99 300.791 730.47C301.471 729.93 301.931 729.11 302.171 728.01L306.851 729.33ZM316.501 719.7C318.081 719.7 319.461 720.01 320.641 720.63C321.841 721.25 322.771 722.14 323.431 723.3C324.111 724.46 324.451 725.86 324.451 727.5C324.451 729.14 324.111 730.54 323.431 731.7C322.771 732.86 321.841 733.75 320.641 734.37C319.461 734.99 318.081 735.3 316.501 735.3C314.941 735.3 313.561 734.99 312.361 734.37C311.181 733.75 310.251 732.86 309.571 731.7C308.911 730.54 308.581 729.14 308.581 727.5C308.581 725.86 308.911 724.46 309.571 723.3C310.251 722.14 311.181 721.25 312.361 720.63C313.561 720.01 314.941 719.7 316.501 719.7ZM316.501 723.33C315.621 723.33 314.931 723.66 314.431 724.32C313.951 724.96 313.711 726.02 313.711 727.5C313.711 728.96 313.951 730.02 314.431 730.68C314.931 731.34 315.621 731.67 316.501 731.67C317.401 731.67 318.091 731.34 318.571 730.68C319.071 730.02 319.321 728.96 319.321 727.5C319.321 726.02 319.071 724.96 318.571 724.32C318.091 723.66 317.401 723.33 316.501 723.33ZM327.32 735V720H331.88L332.03 723.03C332.49 721.93 333.16 721.1 334.04 720.54C334.92 719.98 335.96 719.7 337.16 719.7C338.7 719.7 339.95 720.15 340.91 721.05C341.87 721.95 342.35 723.27 342.35 725.01V735H337.25V726.36C337.25 725.32 337.05 724.6 336.65 724.2C336.25 723.8 335.74 723.6 335.12 723.6C334.38 723.6 333.74 723.86 333.2 724.38C332.68 724.9 332.42 725.79 332.42 727.05V735H327.32ZM356.576 720V723.63H352.106V729.66C352.106 730.38 352.276 730.9 352.616 731.22C352.976 731.52 353.466 731.67 354.086 731.67C354.566 731.67 354.976 731.62 355.316 731.52C355.656 731.4 355.976 731.23 356.276 731.01L356.816 734.16C356.316 734.5 355.676 734.78 354.896 735C354.136 735.2 353.366 735.3 352.586 735.3C350.866 735.3 349.506 734.94 348.506 734.22C347.526 733.48 347.026 732.24 347.006 730.5V723.63H344.426V720H347.006V716.64L352.106 715.23V720H356.576ZM358.932 735V720H363.432L363.642 723.24C364.002 722.14 364.552 721.28 365.292 720.66C366.052 720.02 367.022 719.7 368.202 719.7C368.582 719.7 368.902 719.74 369.162 719.82C369.442 719.88 369.662 719.95 369.822 720.03L369.312 724.23C369.112 724.17 368.852 724.11 368.532 724.05C368.232 723.99 367.862 723.96 367.422 723.96C366.502 723.96 365.702 724.25 365.022 724.83C364.362 725.41 364.032 726.28 364.032 727.44V735H358.932ZM380.016 725.49C380.016 724.79 379.816 724.24 379.416 723.84C379.036 723.42 378.516 723.21 377.856 723.21C377.196 723.21 376.626 723.38 376.146 723.72C375.686 724.04 375.366 724.62 375.186 725.46L370.866 724.44C371.146 723 371.886 721.85 373.086 720.99C374.286 720.13 375.976 719.7 378.156 719.7C380.356 719.7 382.056 720.19 383.256 721.17C384.476 722.13 385.086 723.54 385.086 725.4V730.89C385.086 731.67 385.436 732.06 386.136 732.06C386.496 732.06 386.786 732.02 387.006 731.94L386.706 734.85C386.106 735.13 385.376 735.27 384.516 735.27C383.576 735.27 382.766 735.09 382.086 734.73C381.406 734.35 380.946 733.78 380.706 733.02C380.286 733.8 379.616 734.38 378.696 734.76C377.796 735.12 376.836 735.3 375.816 735.3C374.276 735.3 373.046 734.95 372.126 734.25C371.226 733.53 370.776 732.5 370.776 731.16C370.776 730.08 371.096 729.19 371.736 728.49C372.396 727.77 373.426 727.27 374.826 726.99L380.016 725.91V725.49ZM375.816 730.68C375.816 731.12 375.976 731.45 376.296 731.67C376.616 731.89 376.996 732 377.436 732C378.116 732 378.716 731.8 379.236 731.4C379.756 730.98 380.016 730.33 380.016 729.45V728.61L377.586 729.12C376.986 729.24 376.536 729.42 376.236 729.66C375.956 729.88 375.816 730.22 375.816 730.68ZM396.012 719.7C397.532 719.7 398.792 719.92 399.792 720.36C400.812 720.8 401.602 721.37 402.162 722.07C402.722 722.77 403.082 723.53 403.242 724.35L398.532 725.91C398.412 725.05 398.162 724.41 397.782 723.99C397.402 723.55 396.862 723.33 396.162 723.33C395.202 723.33 394.472 723.67 393.972 724.35C393.492 725.03 393.252 726.1 393.252 727.56C393.252 729.04 393.512 730.1 394.032 730.74C394.572 731.36 395.292 731.67 396.192 731.67C397.612 731.67 398.442 730.86 398.682 729.24L403.272 730.71C403.052 732.01 402.322 733.1 401.082 733.98C399.862 734.86 398.242 735.3 396.222 735.3C393.762 735.3 391.792 734.62 390.312 733.26C388.852 731.88 388.122 729.96 388.122 727.5C388.122 725.86 388.452 724.46 389.112 723.3C389.792 722.14 390.722 721.25 391.902 720.63C393.082 720.01 394.452 719.7 396.012 719.7ZM416.664 720V723.63H412.194V729.66C412.194 730.38 412.364 730.9 412.704 731.22C413.064 731.52 413.554 731.67 414.174 731.67C414.654 731.67 415.064 731.62 415.404 731.52C415.744 731.4 416.064 731.23 416.364 731.01L416.904 734.16C416.404 734.5 415.764 734.78 414.984 735C414.224 735.2 413.454 735.3 412.674 735.3C410.954 735.3 409.594 734.94 408.594 734.22C407.614 733.48 407.114 732.24 407.094 730.5V723.63H404.514V720H407.094V716.64L412.194 715.23V720H416.664Z" fill="#4867AA"/>
<path d="M255.537 612.554L303.374 541.618L351.614 611.311L325.281 611.652L303.354 580.15L281.852 612.214L255.537 612.554Z" fill="#183C8A"/>
<path d="M368.554 615.754L304.264 686.934L239.787 617.481L275.079 617.008L304.387 648.4L333.286 616.227L368.554 615.754Z" fill="#8DAAEA"/>
<g filter="url(#filter5_d)">
<circle cx="939" cy="440" r="134" fill="white"/>
<circle cx="939" cy="440" r="133.5" stroke="#E9E9E9"/>
</g>
<path d="M894.032 486.88C896.592 486.88 898.587 487.499 900.016 488.736C901.467 489.952 902.192 491.68 902.192 493.92C902.192 496.16 901.467 497.899 900.016 499.136C898.587 500.352 896.592 500.96 894.032 500.96H889.84V508H884.336V486.88H894.032ZM893.168 496.832C895.493 496.832 896.656 495.861 896.656 493.92C896.656 491.979 895.493 491.008 893.168 491.008H889.84V496.832H893.168ZM914.255 497.856C914.255 497.109 914.042 496.523 913.615 496.096C913.21 495.648 912.655 495.424 911.951 495.424C911.247 495.424 910.639 495.605 910.127 495.968C909.636 496.309 909.295 496.928 909.103 497.824L904.495 496.736C904.794 495.2 905.583 493.973 906.863 493.056C908.143 492.139 909.946 491.68 912.271 491.68C914.618 491.68 916.431 492.203 917.711 493.248C919.012 494.272 919.663 495.776 919.663 497.76V503.616C919.663 504.448 920.036 504.864 920.783 504.864C921.167 504.864 921.476 504.821 921.711 504.736L921.391 507.84C920.751 508.139 919.972 508.288 919.055 508.288C918.052 508.288 917.188 508.096 916.463 507.712C915.738 507.307 915.247 506.699 914.991 505.888C914.543 506.72 913.828 507.339 912.847 507.744C911.887 508.128 910.863 508.32 909.775 508.32C908.132 508.32 906.82 507.947 905.839 507.2C904.879 506.432 904.399 505.333 904.399 503.904C904.399 502.752 904.74 501.803 905.423 501.056C906.127 500.288 907.226 499.755 908.719 499.456L914.255 498.304V497.856ZM909.775 503.392C909.775 503.861 909.946 504.213 910.287 504.448C910.628 504.683 911.034 504.8 911.503 504.8C912.228 504.8 912.868 504.587 913.423 504.16C913.978 503.712 914.255 503.019 914.255 502.08V501.184L911.663 501.728C911.023 501.856 910.543 502.048 910.223 502.304C909.924 502.539 909.775 502.901 909.775 503.392ZM938.923 492L933.099 508C932.502 509.685 931.851 511.029 931.147 512.032C930.443 513.056 929.611 513.781 928.651 514.208C927.691 514.656 926.539 514.88 925.195 514.88C924.278 514.88 923.446 514.784 922.699 514.592C921.974 514.4 921.334 514.133 920.779 513.792L921.867 510.112C922.251 510.389 922.656 510.581 923.083 510.688C923.51 510.816 924.054 510.88 924.715 510.88C925.334 510.88 925.835 510.773 926.219 510.56C926.624 510.368 926.944 509.963 927.179 509.344L927.595 508.352L925.739 504L920.939 492H926.923L929.387 501.12L930.155 504.512L931.051 500.992L933.515 492H938.923ZM940.858 508V492H945.658L945.882 495.456C946.266 494.283 946.853 493.365 947.642 492.704C948.453 492.021 949.488 491.68 950.746 491.68C951.152 491.68 951.493 491.723 951.77 491.808C952.069 491.872 952.304 491.947 952.474 492.032L951.93 496.512C951.717 496.448 951.44 496.384 951.098 496.32C950.778 496.256 950.384 496.224 949.914 496.224C948.933 496.224 948.08 496.533 947.354 497.152C946.65 497.771 946.298 498.699 946.298 499.936V508H940.858ZM962.037 491.68C963.722 491.68 965.194 492.011 966.453 492.672C967.733 493.333 968.725 494.283 969.429 495.52C970.154 496.757 970.517 498.251 970.517 500C970.517 501.749 970.154 503.243 969.429 504.48C968.725 505.717 967.733 506.667 966.453 507.328C965.194 507.989 963.722 508.32 962.037 508.32C960.373 508.32 958.901 507.989 957.621 507.328C956.362 506.667 955.37 505.717 954.645 504.48C953.941 503.243 953.589 501.749 953.589 500C953.589 498.251 953.941 496.757 954.645 495.52C955.37 494.283 956.362 493.333 957.621 492.672C958.901 492.011 960.373 491.68 962.037 491.68ZM962.037 495.552C961.098 495.552 960.362 495.904 959.829 496.608C959.317 497.291 959.061 498.421 959.061 500C959.061 501.557 959.317 502.688 959.829 503.392C960.362 504.096 961.098 504.448 962.037 504.448C962.997 504.448 963.733 504.096 964.245 503.392C964.778 502.688 965.045 501.557 965.045 500C965.045 498.421 964.778 497.291 964.245 496.608C963.733 495.904 962.997 495.552 962.037 495.552ZM978.953 485.216V502.56C978.953 503.264 979.07 503.765 979.305 504.064C979.54 504.363 979.934 504.512 980.489 504.512C980.809 504.512 981.076 504.491 981.289 504.448C981.502 504.405 981.758 504.341 982.057 504.256L981.705 507.52C981.321 507.755 980.82 507.947 980.201 508.096C979.582 508.245 978.974 508.32 978.377 508.32C976.67 508.32 975.433 507.925 974.665 507.136C973.897 506.347 973.513 505.056 973.513 503.264V485.216H978.953ZM989.422 485.216V502.56C989.422 503.264 989.539 503.765 989.774 504.064C990.008 504.363 990.403 504.512 990.958 504.512C991.278 504.512 991.544 504.491 991.758 504.448C991.971 504.405 992.227 504.341 992.526 504.256L992.174 507.52C991.79 507.755 991.288 507.947 990.67 508.096C990.051 508.245 989.443 508.32 988.846 508.32C987.139 508.32 985.902 507.925 985.134 507.136C984.366 506.347 983.982 505.056 983.982 503.264V485.216H989.422Z" fill="#4867AA"/>
<path d="M873.4 376.6C873.4 375.496 874.295 374.6 875.4 374.6H1002.6C1003.7 374.6 1004.6 375.496 1004.6 376.6V390.6H873.4V376.6Z" fill="#183C8A"/>
<path d="M873.4 393.8H1004.6V468.6C1004.6 469.705 1003.7 470.6 1002.6 470.6H875.4C874.295 470.6 873.4 469.705 873.4 468.6V393.8Z" fill="#8DAAEA"/>
<path d="M973.207 444.262L983.234 438.746C983.407 438.651 983.601 438.601 983.799 438.601C983.997 438.601 984.191 438.651 984.364 438.746L994.391 444.262C994.535 444.341 994.661 444.449 994.76 444.579C994.859 444.71 994.93 444.86 994.968 445.02C995.005 445.179 995.009 445.345 994.979 445.506C994.949 445.667 994.885 445.82 994.792 445.955L984.764 460.494C984.657 460.651 984.512 460.778 984.344 460.867C984.176 460.955 983.989 461.001 983.799 461.001C983.609 461.001 983.422 460.955 983.254 460.867C983.086 460.778 982.942 460.651 982.834 460.494L972.806 445.956C972.713 445.821 972.65 445.668 972.619 445.507C972.589 445.346 972.593 445.18 972.631 445.02C972.668 444.861 972.739 444.711 972.838 444.58C972.938 444.45 973.063 444.341 973.207 444.262V444.262Z" fill="white"/>
<g filter="url(#filter6_d)">
<circle cx="569" cy="927" r="116" fill="white"/>
<circle cx="569" cy="927" r="115.5" stroke="#E9E9E9"/>
</g>
<path d="M557.74 999.33C557.16 1001.41 556.09 1002.93 554.53 1003.89C552.99 1004.83 551.17 1005.3 549.07 1005.3C547.05 1005.3 545.31 1004.9 543.85 1004.1C542.41 1003.28 541.3 1002.11 540.52 1000.59C539.74 999.07 539.35 997.24 539.35 995.1C539.35 992.96 539.74 991.13 540.52 989.61C541.3 988.09 542.41 986.93 543.85 986.13C545.31 985.31 547.04 984.9 549.04 984.9C551.1 984.9 552.9 985.34 554.44 986.22C555.98 987.1 557 988.48 557.5 990.36L552.97 992.19C552.69 990.97 552.23 990.13 551.59 989.67C550.97 989.19 550.18 988.95 549.22 988.95C547.78 988.95 546.65 989.47 545.83 990.51C545.03 991.55 544.63 993.08 544.63 995.1C544.63 997.12 545.01 998.65 545.77 999.69C546.55 1000.73 547.71 1001.25 549.25 1001.25C550.21 1001.25 551.02 1000.99 551.68 1000.47C552.36 999.93 552.82 999.11 553.06 998.01L557.74 999.33ZM560.25 1005V983.64H565.35V992.73C565.79 991.73 566.42 990.98 567.24 990.48C568.06 989.96 569.01 989.7 570.09 989.7C571.63 989.7 572.88 990.15 573.84 991.05C574.8 991.95 575.28 993.27 575.28 995.01V1005H570.18V996.42C570.18 995.34 569.98 994.6 569.58 994.2C569.2 993.78 568.69 993.57 568.05 993.57C567.33 993.57 566.7 993.85 566.16 994.41C565.62 994.95 565.35 995.85 565.35 997.11V1005H560.25ZM587.223 995.49C587.223 994.79 587.023 994.24 586.623 993.84C586.243 993.42 585.723 993.21 585.063 993.21C584.403 993.21 583.833 993.38 583.353 993.72C582.893 994.04 582.573 994.62 582.393 995.46L578.073 994.44C578.353 993 579.093 991.85 580.293 990.99C581.493 990.13 583.183 989.7 585.363 989.7C587.563 989.7 589.263 990.19 590.463 991.17C591.683 992.13 592.293 993.54 592.293 995.4V1000.89C592.293 1001.67 592.643 1002.06 593.343 1002.06C593.703 1002.06 593.993 1002.02 594.213 1001.94L593.913 1004.85C593.313 1005.13 592.583 1005.27 591.723 1005.27C590.783 1005.27 589.973 1005.09 589.293 1004.73C588.613 1004.35 588.153 1003.78 587.913 1003.02C587.493 1003.8 586.823 1004.38 585.903 1004.76C585.003 1005.12 584.043 1005.3 583.023 1005.3C581.483 1005.3 580.253 1004.95 579.333 1004.25C578.433 1003.53 577.983 1002.5 577.983 1001.16C577.983 1000.08 578.303 999.19 578.943 998.49C579.603 997.77 580.633 997.27 582.033 996.99L587.223 995.91V995.49ZM583.023 1000.68C583.023 1001.12 583.183 1001.45 583.503 1001.67C583.823 1001.89 584.203 1002 584.643 1002C585.323 1002 585.923 1001.8 586.443 1001.4C586.963 1000.98 587.223 1000.33 587.223 999.45V998.61L584.793 999.12C584.193 999.24 583.743 999.42 583.443 999.66C583.163 999.88 583.023 1000.22 583.023 1000.68ZM606.381 990V993.63H601.911V999.66C601.911 1000.38 602.081 1000.9 602.421 1001.22C602.781 1001.52 603.271 1001.67 603.891 1001.67C604.371 1001.67 604.781 1001.62 605.121 1001.52C605.461 1001.4 605.781 1001.23 606.081 1001.01L606.621 1004.16C606.121 1004.5 605.481 1004.78 604.701 1005C603.941 1005.2 603.171 1005.3 602.391 1005.3C600.671 1005.3 599.311 1004.94 598.311 1004.22C597.331 1003.48 596.831 1002.24 596.811 1000.5V993.63H594.231V990H596.811V986.64L601.911 985.23V990H606.381Z" fill="#4867AA"/>
<path d="M613.318 928.806C623.129 921.072 628.711 909.922 628.711 897.912C628.711 875.521 609.133 857.319 585.066 857.319C565.643 857.319 548.854 868.934 543.277 886.232C543.008 887.066 543.497 887.975 543.976 888.695C544.455 889.404 545.552 889.756 546.41 889.794C569.788 889.794 588.807 906.789 588.807 927.681C588.807 930.019 588.548 932.422 588.029 934.82C587.845 935.675 588.054 936.579 588.593 937.234C589.132 937.889 589.925 938.23 590.738 938.121C594.593 937.645 598.309 936.725 601.801 935.377L614.999 943.561C615.388 943.799 615.812 943.918 616.236 943.918C616.86 943.918 617.478 943.664 617.952 943.177C618.75 942.359 618.959 941.066 618.471 939.999L613.318 928.806Z" fill="#8DAAEA"/>
<path d="M546.409 895.206C525.779 895.206 509 909.766 509 927.681C509 937.331 514.023 946.521 522.542 952.665L519.15 961.86C518.766 962.899 519.016 964.096 519.779 964.859C520.248 965.319 520.856 965.568 521.465 965.568C521.844 965.568 522.228 965.476 522.582 965.281L534.947 958.57C538.693 959.62 542.544 960.156 546.405 960.156C567.035 960.156 583.814 945.591 583.814 927.681C583.814 909.771 567.04 895.206 546.409 895.206Z" fill="#183C8A"/>
<g filter="url(#filter7_d)">
<circle cx="944.5" cy="811.5" r="128.5" fill="white"/>
<circle cx="944.5" cy="811.5" r="128" stroke="#E9E9E9"/>
</g>
<path d="M880.692 828.16V844H876.108L871.188 835.432L869.988 833.08H869.964L870.06 836.008V844H866.412V828.16H870.996L875.916 836.728L877.116 839.08H877.14L877.044 836.152V828.16H880.692ZM889.699 844.24C887.699 844.24 886.115 843.696 884.947 842.608C883.795 841.52 883.219 839.984 883.219 838C883.219 836.688 883.483 835.568 884.011 834.64C884.555 833.696 885.291 832.984 886.219 832.504C887.163 832.008 888.259 831.76 889.507 831.76C890.771 831.76 891.843 832.008 892.723 832.504C893.619 832.984 894.299 833.656 894.763 834.52C895.227 835.368 895.459 836.344 895.459 837.448C895.459 837.752 895.443 838.048 895.411 838.336C895.395 838.608 895.379 838.84 895.363 839.032H887.179C887.291 839.864 887.563 840.464 887.995 840.832C888.427 841.184 888.995 841.36 889.699 841.36C890.307 841.36 890.787 841.24 891.139 841C891.507 840.76 891.779 840.424 891.955 839.992L895.219 841.072C894.995 841.76 894.603 842.344 894.043 842.824C893.499 843.288 892.843 843.64 892.075 843.88C891.323 844.12 890.531 844.24 889.699 844.24ZM889.507 834.616C888.211 834.616 887.443 835.36 887.203 836.848H891.595C891.419 835.36 890.723 834.616 889.507 834.616ZM913.133 832H917.405L913.781 844H908.885L906.701 836.632L904.589 844H899.717L896.069 832H900.365L902.381 840.856L904.733 832H908.765L911.093 840.856L913.133 832ZM931.854 827.92C933.326 827.92 934.622 828.152 935.742 828.616C936.878 829.064 937.862 829.728 938.694 830.608L936.702 833.272C936.014 832.552 935.27 832.016 934.47 831.664C933.686 831.296 932.79 831.112 931.782 831.112C930.902 831.112 930.27 831.256 929.886 831.544C929.502 831.832 929.31 832.184 929.31 832.6C929.31 832.936 929.462 833.224 929.766 833.464C930.086 833.688 930.598 833.88 931.302 834.04L933.966 834.64C935.55 835.008 936.71 835.544 937.446 836.248C938.182 836.952 938.55 837.888 938.55 839.056C938.55 840.176 938.262 841.128 937.686 841.912C937.11 842.68 936.318 843.264 935.31 843.664C934.302 844.048 933.15 844.24 931.854 844.24C930.254 844.24 928.79 843.984 927.462 843.472C926.134 842.944 925.078 842.256 924.294 841.408L926.286 838.648C926.878 839.336 927.678 839.912 928.686 840.376C929.694 840.824 930.734 841.048 931.806 841.048C933.47 841.048 934.302 840.56 934.302 839.584C934.302 839.248 934.174 838.968 933.918 838.744C933.678 838.504 933.23 838.304 932.574 838.144L929.646 837.496C928.75 837.304 927.95 837.032 927.246 836.68C926.558 836.328 926.014 835.864 925.614 835.288C925.214 834.696 925.014 833.96 925.014 833.08C925.014 832.088 925.286 831.208 925.83 830.44C926.374 829.656 927.158 829.04 928.182 828.592C929.206 828.144 930.43 827.92 931.854 827.92ZM946.699 844.24C944.699 844.24 943.115 843.696 941.947 842.608C940.795 841.52 940.219 839.984 940.219 838C940.219 836.688 940.483 835.568 941.011 834.64C941.555 833.696 942.291 832.984 943.219 832.504C944.163 832.008 945.259 831.76 946.507 831.76C947.771 831.76 948.843 832.008 949.723 832.504C950.619 832.984 951.299 833.656 951.763 834.52C952.227 835.368 952.459 836.344 952.459 837.448C952.459 837.752 952.443 838.048 952.411 838.336C952.395 838.608 952.379 838.84 952.363 839.032H944.179C944.291 839.864 944.563 840.464 944.995 840.832C945.427 841.184 945.995 841.36 946.699 841.36C947.307 841.36 947.787 841.24 948.139 841C948.507 840.76 948.779 840.424 948.955 839.992L952.219 841.072C951.995 841.76 951.603 842.344 951.043 842.824C950.499 843.288 949.843 843.64 949.075 843.88C948.323 844.12 947.531 844.24 946.699 844.24ZM946.507 834.616C945.211 834.616 944.443 835.36 944.203 836.848H948.595C948.419 835.36 947.723 834.616 946.507 834.616ZM954.741 844V832H958.341L958.509 834.592C958.797 833.712 959.237 833.024 959.829 832.528C960.437 832.016 961.213 831.76 962.157 831.76C962.461 831.76 962.717 831.792 962.925 831.856C963.149 831.904 963.325 831.96 963.453 832.024L963.045 835.384C962.885 835.336 962.677 835.288 962.421 835.24C962.181 835.192 961.885 835.168 961.533 835.168C960.797 835.168 960.157 835.4 959.613 835.864C959.085 836.328 958.821 837.024 958.821 837.952V844H954.741ZM972.854 832H977.078L972.758 844H967.886L963.566 832H967.862L970.334 841.144L972.854 832ZM980.547 830.608C979.715 830.608 979.107 830.456 978.723 830.152C978.355 829.832 978.171 829.336 978.171 828.664C978.171 827.976 978.355 827.48 978.723 827.176C979.107 826.856 979.715 826.696 980.547 826.696C981.363 826.696 981.963 826.856 982.347 827.176C982.731 827.48 982.923 827.976 982.923 828.664C982.923 829.336 982.731 829.832 982.347 830.152C981.963 830.456 981.363 830.608 980.547 830.608ZM982.587 832V844H978.507V832H982.587ZM991.179 831.76C992.395 831.76 993.403 831.936 994.203 832.288C995.019 832.64 995.651 833.096 996.099 833.656C996.547 834.216 996.835 834.824 996.963 835.48L993.195 836.728C993.099 836.04 992.899 835.528 992.595 835.192C992.291 834.84 991.859 834.664 991.299 834.664C990.531 834.664 989.947 834.936 989.547 835.48C989.163 836.024 988.971 836.88 988.971 838.048C988.971 839.232 989.179 840.08 989.595 840.592C990.027 841.088 990.603 841.336 991.323 841.336C992.459 841.336 993.123 840.688 993.315 839.392L996.987 840.568C996.811 841.608 996.227 842.48 995.235 843.184C994.259 843.888 992.963 844.24 991.347 844.24C989.379 844.24 987.803 843.696 986.619 842.608C985.451 841.504 984.867 839.968 984.867 838C984.867 836.688 985.131 835.568 985.659 834.64C986.203 833.712 986.947 833 987.891 832.504C988.835 832.008 989.931 831.76 991.179 831.76ZM1004.96 844.24C1002.96 844.24 1001.38 843.696 1000.21 842.608C999.061 841.52 998.485 839.984 998.485 838C998.485 836.688 998.749 835.568 999.277 834.64C999.821 833.696 1000.56 832.984 1001.48 832.504C1002.43 832.008 1003.52 831.76 1004.77 831.76C1006.04 831.76 1007.11 832.008 1007.99 832.504C1008.88 832.984 1009.56 833.656 1010.03 834.52C1010.49 835.368 1010.72 836.344 1010.72 837.448C1010.72 837.752 1010.71 838.048 1010.68 838.336C1010.66 838.608 1010.64 838.84 1010.63 839.032H1002.44C1002.56 839.864 1002.83 840.464 1003.26 840.832C1003.69 841.184 1004.26 841.36 1004.96 841.36C1005.57 841.36 1006.05 841.24 1006.4 841C1006.77 840.76 1007.04 840.424 1007.22 839.992L1010.48 841.072C1010.26 841.76 1009.87 842.344 1009.31 842.824C1008.76 843.288 1008.11 843.64 1007.34 843.88C1006.59 844.12 1005.8 844.24 1004.96 844.24ZM1004.77 834.616C1003.48 834.616 1002.71 835.36 1002.47 836.848H1006.86C1006.68 835.36 1005.99 834.616 1004.77 834.616ZM1018.05 844.24C1016.85 844.24 1015.73 844.048 1014.71 843.664C1013.69 843.264 1012.83 842.696 1012.14 841.96L1014.06 839.704C1014.46 840.216 1014.99 840.648 1015.65 841C1016.32 841.336 1017.06 841.504 1017.88 841.504C1018.37 841.504 1018.78 841.432 1019.1 841.288C1019.42 841.144 1019.58 840.92 1019.58 840.616C1019.58 840.408 1019.5 840.232 1019.34 840.088C1019.18 839.944 1018.86 839.824 1018.38 839.728L1016.7 839.392C1015.2 839.088 1014.13 838.64 1013.49 838.048C1012.86 837.44 1012.55 836.648 1012.55 835.672C1012.55 835.016 1012.75 834.392 1013.15 833.8C1013.55 833.208 1014.17 832.72 1015 832.336C1015.83 831.952 1016.89 831.76 1018.19 831.76C1020.67 831.76 1022.48 832.448 1023.61 833.824L1021.67 836.032C1021.29 835.552 1020.79 835.176 1020.18 834.904C1019.57 834.632 1018.97 834.496 1018.36 834.496C1017.19 834.496 1016.61 834.792 1016.61 835.384C1016.61 835.592 1016.7 835.776 1016.89 835.936C1017.1 836.096 1017.48 836.224 1018.02 836.32L1020.21 836.752C1021.44 836.992 1022.33 837.408 1022.87 838C1023.41 838.576 1023.69 839.28 1023.69 840.112C1023.69 841.28 1023.21 842.264 1022.27 843.064C1021.34 843.848 1019.93 844.24 1018.05 844.24ZM904.698 871.464C904.234 873.128 903.378 874.344 902.13 875.112C900.898 875.864 899.442 876.24 897.762 876.24C896.146 876.24 894.754 875.92 893.586 875.28C892.434 874.624 891.546 873.688 890.922 872.472C890.298 871.256 889.986 869.792 889.986 868.08C889.986 866.368 890.298 864.904 890.922 863.688C891.546 862.472 892.434 861.544 893.586 860.904C894.754 860.248 896.138 859.92 897.738 859.92C899.386 859.92 900.826 860.272 902.058 860.976C903.29 861.68 904.106 862.784 904.506 864.288L900.882 865.752C900.658 864.776 900.29 864.104 899.778 863.736C899.282 863.352 898.65 863.16 897.882 863.16C896.73 863.16 895.826 863.576 895.17 864.408C894.53 865.24 894.21 866.464 894.21 868.08C894.21 869.696 894.514 870.92 895.122 871.752C895.746 872.584 896.674 873 897.906 873C898.674 873 899.322 872.792 899.85 872.376C900.394 871.944 900.762 871.288 900.954 870.408L904.698 871.464ZM912.418 863.76C913.682 863.76 914.786 864.008 915.73 864.504C916.69 865 917.434 865.712 917.962 866.64C918.506 867.568 918.778 868.688 918.778 870C918.778 871.312 918.506 872.432 917.962 873.36C917.434 874.288 916.69 875 915.73 875.496C914.786 875.992 913.682 876.24 912.418 876.24C911.17 876.24 910.066 875.992 909.106 875.496C908.162 875 907.418 874.288 906.874 873.36C906.346 872.432 906.082 871.312 906.082 870C906.082 868.688 906.346 867.568 906.874 866.64C907.418 865.712 908.162 865 909.106 864.504C910.066 864.008 911.17 863.76 912.418 863.76ZM912.418 866.664C911.714 866.664 911.162 866.928 910.762 867.456C910.378 867.968 910.186 868.816 910.186 870C910.186 871.168 910.378 872.016 910.762 872.544C911.162 873.072 911.714 873.336 912.418 873.336C913.138 873.336 913.69 873.072 914.074 872.544C914.474 872.016 914.674 871.168 914.674 870C914.674 868.816 914.474 867.968 914.074 867.456C913.69 866.928 913.138 866.664 912.418 866.664ZM921.073 876V864H924.721L924.841 866.328C925.225 865.48 925.761 864.84 926.449 864.408C927.153 863.976 927.961 863.76 928.873 863.76C929.753 863.76 930.521 863.96 931.177 864.36C931.849 864.76 932.345 865.352 932.665 866.136C933.033 865.352 933.577 864.76 934.297 864.36C935.033 863.96 935.833 863.76 936.697 863.76C937.881 863.76 938.857 864.12 939.625 864.84C940.409 865.544 940.801 866.6 940.801 868.008V876H936.721V868.944C936.721 868.176 936.569 867.64 936.265 867.336C935.961 867.032 935.569 866.88 935.089 866.88C934.481 866.88 933.977 867.112 933.577 867.576C933.177 868.024 932.977 868.696 932.977 869.592V876H928.897V868.944C928.897 868.176 928.745 867.64 928.441 867.336C928.137 867.032 927.745 866.88 927.265 866.88C926.705 866.88 926.209 867.096 925.777 867.528C925.361 867.96 925.153 868.672 925.153 869.664V876H921.073ZM943.667 876V864H947.315L947.435 866.328C947.819 865.48 948.355 864.84 949.043 864.408C949.747 863.976 950.555 863.76 951.467 863.76C952.347 863.76 953.115 863.96 953.771 864.36C954.443 864.76 954.939 865.352 955.259 866.136C955.627 865.352 956.171 864.76 956.891 864.36C957.627 863.96 958.427 863.76 959.291 863.76C960.475 863.76 961.451 864.12 962.219 864.84C963.003 865.544 963.395 866.6 963.395 868.008V876H959.315V868.944C959.315 868.176 959.163 867.64 958.859 867.336C958.555 867.032 958.163 866.88 957.683 866.88C957.075 866.88 956.571 867.112 956.171 867.576C955.771 868.024 955.571 868.696 955.571 869.592V876H951.491V868.944C951.491 868.176 951.339 867.64 951.035 867.336C950.731 867.032 950.339 866.88 949.859 866.88C949.299 866.88 948.803 867.096 948.371 867.528C947.955 867.96 947.747 868.672 947.747 869.664V876H943.667ZM968.301 862.608C967.469 862.608 966.861 862.456 966.477 862.152C966.109 861.832 965.925 861.336 965.925 860.664C965.925 859.976 966.109 859.48 966.477 859.176C966.861 858.856 967.469 858.696 968.301 858.696C969.117 858.696 969.717 858.856 970.101 859.176C970.485 859.48 970.677 859.976 970.677 860.664C970.677 861.336 970.485 861.832 970.101 862.152C969.717 862.456 969.117 862.608 968.301 862.608ZM970.341 864V876H966.261V864H970.341ZM973.245 876V864H976.893L977.013 866.424C977.381 865.544 977.917 864.88 978.621 864.432C979.325 863.984 980.157 863.76 981.117 863.76C982.349 863.76 983.349 864.12 984.117 864.84C984.885 865.56 985.269 866.616 985.269 868.008V876H981.189V869.088C981.189 868.256 981.029 867.68 980.709 867.36C980.389 867.04 979.981 866.88 979.485 866.88C978.893 866.88 978.381 867.088 977.949 867.504C977.533 867.92 977.325 868.632 977.325 869.64V876H973.245ZM995.616 873.336C997.008 873.336 998.072 873.632 998.808 874.224C999.56 874.8 999.936 875.632 999.936 876.72C999.936 878.224 999.336 879.336 998.136 880.056C996.952 880.792 995.352 881.16 993.336 881.16C991.16 881.16 989.592 880.888 988.632 880.344C987.672 879.8 987.192 879.064 987.192 878.136C987.192 877.592 987.368 877.128 987.72 876.744C988.088 876.36 988.672 876.096 989.472 875.952C988.304 875.52 987.72 874.712 987.72 873.528C987.72 872.968 987.888 872.48 988.224 872.064C988.56 871.632 989.024 871.32 989.616 871.128C988.336 870.424 987.696 869.328 987.696 867.84C987.696 866.544 988.2 865.544 989.208 864.84C990.232 864.12 991.664 863.76 993.504 863.76C994.432 863.76 995.272 863.856 996.024 864.048C996.088 863.472 996.248 862.936 996.504 862.44C996.776 861.944 997.144 861.544 997.608 861.24C998.088 860.92 998.672 860.76 999.36 860.76C999.408 860.76 999.464 860.768 999.528 860.784C999.592 860.784 999.664 860.784 999.744 860.784L1000.08 863.52C999.904 863.472 999.712 863.448 999.504 863.448C998.944 863.448 998.496 863.56 998.16 863.784C997.824 864.008 997.6 864.296 997.488 864.648C998.688 865.352 999.288 866.416 999.288 867.84C999.288 869.136 998.776 870.136 997.752 870.84C996.744 871.544 995.328 871.896 993.504 871.896C992.672 871.896 991.92 871.824 991.248 871.68C990.72 871.84 990.456 872.12 990.456 872.52C990.456 873.064 990.904 873.336 991.8 873.336H995.616ZM993.504 866.088C992.976 866.088 992.544 866.24 992.208 866.544C991.888 866.848 991.728 867.28 991.728 867.84C991.728 868.384 991.888 868.808 992.208 869.112C992.544 869.416 992.976 869.568 993.504 869.568C994.016 869.568 994.44 869.416 994.776 869.112C995.112 868.808 995.28 868.384 995.28 867.84C995.28 867.28 995.112 866.848 994.776 866.544C994.44 866.24 994.016 866.088 993.504 866.088ZM993.36 878.52C994.512 878.52 995.368 878.4 995.928 878.16C996.504 877.936 996.792 877.648 996.792 877.296C996.792 877.056 996.696 876.864 996.504 876.72C996.328 876.592 996.016 876.528 995.568 876.528H991.272C990.968 876.528 990.72 876.608 990.528 876.768C990.352 876.928 990.264 877.128 990.264 877.368C990.264 877.736 990.536 878.016 991.08 878.208C991.624 878.416 992.384 878.52 993.36 878.52ZM912.178 891.92C913.65 891.92 914.946 892.152 916.066 892.616C917.202 893.064 918.186 893.728 919.018 894.608L917.026 897.272C916.338 896.552 915.594 896.016 914.794 895.664C914.01 895.296 913.114 895.112 912.106 895.112C911.226 895.112 910.594 895.256 910.21 895.544C909.826 895.832 909.634 896.184 909.634 896.6C909.634 896.936 909.786 897.224 910.09 897.464C910.41 897.688 910.922 897.88 911.626 898.04L914.29 898.64C915.874 899.008 917.034 899.544 917.77 900.248C918.506 900.952 918.874 901.888 918.874 903.056C918.874 904.176 918.586 905.128 918.01 905.912C917.434 906.68 916.642 907.264 915.634 907.664C914.626 908.048 913.474 908.24 912.178 908.24C910.578 908.24 909.114 907.984 907.786 907.472C906.458 906.944 905.402 906.256 904.618 905.408L906.61 902.648C907.202 903.336 908.002 903.912 909.01 904.376C910.018 904.824 911.058 905.048 912.13 905.048C913.794 905.048 914.626 904.56 914.626 903.584C914.626 903.248 914.498 902.968 914.242 902.744C914.002 902.504 913.554 902.304 912.898 902.144L909.97 901.496C909.074 901.304 908.274 901.032 907.57 900.68C906.882 900.328 906.338 899.864 905.938 899.288C905.538 898.696 905.338 897.96 905.338 897.08C905.338 896.088 905.61 895.208 906.154 894.44C906.698 893.656 907.482 893.04 908.506 892.592C909.53 892.144 910.754 891.92 912.178 891.92ZM926.879 895.76C928.143 895.76 929.247 896.008 930.191 896.504C931.151 897 931.895 897.712 932.423 898.64C932.967 899.568 933.239 900.688 933.239 902C933.239 903.312 932.967 904.432 932.423 905.36C931.895 906.288 931.151 907 930.191 907.496C929.247 907.992 928.143 908.24 926.879 908.24C925.631 908.24 924.527 907.992 923.567 907.496C922.623 907 921.879 906.288 921.335 905.36C920.807 904.432 920.543 903.312 920.543 902C920.543 900.688 920.807 899.568 921.335 898.64C921.879 897.712 922.623 897 923.567 896.504C924.527 896.008 925.631 895.76 926.879 895.76ZM926.879 898.664C926.175 898.664 925.623 898.928 925.223 899.456C924.839 899.968 924.647 900.816 924.647 902C924.647 903.168 924.839 904.016 925.223 904.544C925.623 905.072 926.175 905.336 926.879 905.336C927.599 905.336 928.151 905.072 928.535 904.544C928.935 904.016 929.135 903.168 929.135 902C929.135 900.816 928.935 899.968 928.535 899.456C928.151 898.928 927.599 898.664 926.879 898.664ZM941.246 895.76C942.51 895.76 943.614 896.008 944.558 896.504C945.518 897 946.262 897.712 946.79 898.64C947.334 899.568 947.606 900.688 947.606 902C947.606 903.312 947.334 904.432 946.79 905.36C946.262 906.288 945.518 907 944.558 907.496C943.614 907.992 942.51 908.24 941.246 908.24C939.998 908.24 938.894 907.992 937.934 907.496C936.99 907 936.246 906.288 935.702 905.36C935.174 904.432 934.91 903.312 934.91 902C934.91 900.688 935.174 899.568 935.702 898.64C936.246 897.712 936.99 897 937.934 896.504C938.894 896.008 939.998 895.76 941.246 895.76ZM941.246 898.664C940.542 898.664 939.99 898.928 939.59 899.456C939.206 899.968 939.014 900.816 939.014 902C939.014 903.168 939.206 904.016 939.59 904.544C939.99 905.072 940.542 905.336 941.246 905.336C941.966 905.336 942.518 905.072 942.902 904.544C943.302 904.016 943.502 903.168 943.502 902C943.502 900.816 943.302 899.968 942.902 899.456C942.518 898.928 941.966 898.664 941.246 898.664ZM949.902 908V896H953.55L953.67 898.424C954.038 897.544 954.574 896.88 955.278 896.432C955.982 895.984 956.814 895.76 957.774 895.76C959.006 895.76 960.006 896.12 960.773 896.84C961.542 897.56 961.926 898.616 961.926 900.008V908H957.846V901.088C957.846 900.256 957.686 899.68 957.366 899.36C957.046 899.04 956.638 898.88 956.142 898.88C955.55 898.88 955.038 899.088 954.605 899.504C954.19 899.92 953.982 900.632 953.982 901.64V908H949.902ZM977.58 891.92C978.748 891.92 979.796 892.088 980.724 892.424C981.668 892.744 982.404 893.232 982.932 893.888C983.476 894.544 983.747 895.36 983.747 896.336C983.747 897.328 983.54 898.136 983.124 898.76C982.724 899.384 982.172 899.856 981.468 900.176C980.78 900.496 980.02 900.704 979.188 900.8L978.948 902.864H975.348L975.372 899.216C976.828 899.088 977.852 898.832 978.444 898.448C979.052 898.048 979.356 897.528 979.356 896.888C979.356 896.376 979.188 895.976 978.852 895.688C978.516 895.384 977.996 895.232 977.292 895.232C975.9 895.232 975.1 896.04 974.892 897.656L970.956 896.288C971.148 895.456 971.508 894.712 972.036 894.056C972.564 893.4 973.284 892.88 974.196 892.496C975.108 892.112 976.236 891.92 977.58 891.92ZM977.22 904.136C977.94 904.136 978.5 904.32 978.9 904.688C979.316 905.04 979.524 905.528 979.524 906.152C979.524 906.792 979.316 907.296 978.9 907.664C978.5 908.016 977.94 908.192 977.22 908.192C976.484 908.192 975.908 908.016 975.492 907.664C975.092 907.296 974.892 906.792 974.892 906.152C974.892 905.528 975.092 905.04 975.492 904.688C975.908 904.32 976.484 904.136 977.22 904.136Z" fill="#4A59C0"/>
<path d="M995 760.5C995 773.893 989.679 786.738 980.209 796.209C970.738 805.679 957.893 811 944.5 811C931.107 811 918.262 805.679 908.791 796.209C899.321 786.738 894 773.893 894 760.5C894 747.107 899.321 734.262 908.791 724.791C918.262 715.321 931.107 710 944.5 710C957.893 710 970.738 715.321 980.209 724.791C989.679 734.262 995 747.107 995 760.5ZM928.694 748.083H933.901C934.772 748.083 935.467 747.37 935.58 746.505C936.149 742.364 938.989 739.347 944.052 739.347C948.382 739.347 952.346 741.512 952.346 746.72C952.346 750.728 949.986 752.572 946.255 755.374C942.007 758.461 938.642 762.066 938.882 767.917L938.901 769.287C938.907 769.701 939.077 770.096 939.372 770.387C939.667 770.677 940.065 770.84 940.479 770.84H945.598C946.017 770.84 946.418 770.674 946.714 770.378C947.01 770.082 947.176 769.68 947.176 769.262V768.599C947.176 764.067 948.9 762.747 953.552 759.219C957.396 756.296 961.405 753.051 961.405 746.24C961.405 736.702 953.35 732.094 944.532 732.094C936.534 732.094 927.772 735.818 927.172 746.524C927.164 746.728 927.197 746.931 927.27 747.122C927.343 747.313 927.454 747.486 927.596 747.632C927.739 747.778 927.909 747.894 928.098 747.971C928.287 748.049 928.489 748.087 928.694 748.083ZM943.37 788.755C947.221 788.755 949.866 786.268 949.866 782.903C949.866 779.419 947.214 776.969 943.37 776.969C939.684 776.969 937.001 779.419 937.001 782.903C937.001 786.268 939.684 788.755 943.376 788.755H943.37Z" fill="#4A59C0"/>
<path d="M688.875 655.688C688.875 656.97 688.166 658.084 687.086 658.657L660.423 673.643C659.883 674.048 659.208 674.25 658.5 674.25C657.791 674.25 657.116 674.048 656.576 673.643L629.913 658.657C629.372 658.373 628.919 657.946 628.604 657.422C628.289 656.899 628.123 656.299 628.125 655.688V625.312C628.125 624.03 628.833 622.916 629.913 622.342L656.576 607.358C657.116 606.953 657.791 606.75 658.5 606.75C659.208 606.75 659.883 606.953 660.423 607.358L687.086 622.342C688.166 622.916 688.875 624.03 688.875 625.312V655.688Z" fill="#183C8A"/>
<g filter="url(#filter8_d)">
<circle cx="120" cy="344" r="102" fill="white"/>
<circle cx="120" cy="344" r="101.5" stroke="#EDECFF"/>
</g>
<path d="M135.453 357.362L121.029 361.546C121.29 362.508 121.74 363.409 122.353 364.196C122.966 364.982 123.73 365.639 124.599 366.127C125.469 366.616 126.427 366.926 127.417 367.04C128.408 367.154 129.412 367.07 130.369 366.792C131.327 366.515 132.22 366.049 132.996 365.422C133.772 364.796 134.415 364.021 134.888 363.143C135.362 362.265 135.655 361.302 135.752 360.309C135.849 359.317 135.747 358.315 135.453 357.362ZM96.6395 358.827L97.684 362.428L155.325 345.708L154.28 342.108L150.371 340.629C147.694 339.619 145.035 337.17 144.461 335.191L138.711 315.378C137.005 309.697 133.124 304.92 127.914 302.085C122.703 299.249 116.584 298.586 110.887 300.238C105.191 301.891 100.376 305.726 97.4918 310.909C94.6073 316.092 93.8858 322.205 95.4841 327.917L101.232 347.732C101.806 349.711 100.87 353.204 99.1494 355.489L96.6395 358.827Z" fill="#183C8A"/>
<path d="M66.032 388.16V404H61.448L56.528 395.432L55.328 393.08H55.304L55.4 396.008V404H51.752V388.16H56.336L61.256 396.728L62.456 399.08H62.48L62.384 396.152V388.16H66.032ZM74.8948 391.76C76.1588 391.76 77.2628 392.008 78.2068 392.504C79.1668 393 79.9108 393.712 80.4388 394.64C80.9828 395.568 81.2548 396.688 81.2548 398C81.2548 399.312 80.9828 400.432 80.4388 401.36C79.9108 402.288 79.1668 403 78.2068 403.496C77.2628 403.992 76.1588 404.24 74.8948 404.24C73.6468 404.24 72.5428 403.992 71.5828 403.496C70.6388 403 69.8948 402.288 69.3508 401.36C68.8228 400.432 68.5588 399.312 68.5588 398C68.5588 396.688 68.8228 395.568 69.3508 394.64C69.8948 393.712 70.6388 393 71.5828 392.504C72.5428 392.008 73.6468 391.76 74.8948 391.76ZM74.8948 394.664C74.1908 394.664 73.6388 394.928 73.2388 395.456C72.8548 395.968 72.6628 396.816 72.6628 398C72.6628 399.168 72.8548 400.016 73.2388 400.544C73.6388 401.072 74.1908 401.336 74.8948 401.336C75.6148 401.336 76.1668 401.072 76.5508 400.544C76.9508 400.016 77.1508 399.168 77.1508 398C77.1508 396.816 76.9508 395.968 76.5508 395.456C76.1668 394.928 75.6148 394.664 74.8948 394.664ZM92.0482 392V394.904H88.4722V399.728C88.4722 400.304 88.6082 400.72 88.8802 400.976C89.1682 401.216 89.5602 401.336 90.0562 401.336C90.4402 401.336 90.7682 401.296 91.0402 401.216C91.3122 401.12 91.5682 400.984 91.8082 400.808L92.2402 403.328C91.8402 403.6 91.3282 403.824 90.7042 404C90.0962 404.16 89.4802 404.24 88.8562 404.24C87.4802 404.24 86.3922 403.952 85.5922 403.376C84.8082 402.784 84.4082 401.792 84.3922 400.4V394.904H82.3282V392H84.3922V389.312L88.4722 388.184V392H92.0482ZM95.9728 390.608C95.1408 390.608 94.5328 390.456 94.1488 390.152C93.7808 389.832 93.5968 389.336 93.5968 388.664C93.5968 387.976 93.7808 387.48 94.1488 387.176C94.5328 386.856 95.1408 386.696 95.9728 386.696C96.7888 386.696 97.3888 386.856 97.7728 387.176C98.1568 387.48 98.3488 387.976 98.3488 388.664C98.3488 389.336 98.1568 389.832 97.7728 390.152C97.3888 390.456 96.7888 390.608 95.9728 390.608ZM98.0128 392V404H93.9328V392H98.0128ZM109.221 392V394.904H105.813V404H101.733V394.904H99.8131V392H101.733V390.896C101.733 389.872 101.949 389.048 102.381 388.424C102.829 387.784 103.413 387.32 104.133 387.032C104.869 386.728 105.661 386.576 106.509 386.576C107.165 386.576 107.741 386.648 108.237 386.792C108.733 386.92 109.101 387.072 109.341 387.248L108.933 389.792C108.757 389.696 108.557 389.616 108.333 389.552C108.109 389.472 107.829 389.432 107.493 389.432C106.917 389.432 106.453 389.56 106.101 389.816C105.749 390.072 105.573 390.52 105.573 391.16V392H109.221ZM112.917 390.608C112.085 390.608 111.477 390.456 111.093 390.152C110.725 389.832 110.541 389.336 110.541 388.664C110.541 387.976 110.725 387.48 111.093 387.176C111.477 386.856 112.085 386.696 112.917 386.696C113.733 386.696 114.333 386.856 114.717 387.176C115.101 387.48 115.293 387.976 115.293 388.664C115.293 389.336 115.101 389.832 114.717 390.152C114.333 390.456 113.733 390.608 112.917 390.608ZM114.957 392V404H110.877V392H114.957ZM123.55 391.76C124.766 391.76 125.774 391.936 126.574 392.288C127.39 392.64 128.022 393.096 128.47 393.656C128.918 394.216 129.206 394.824 129.334 395.48L125.566 396.728C125.47 396.04 125.27 395.528 124.966 395.192C124.662 394.84 124.23 394.664 123.67 394.664C122.902 394.664 122.318 394.936 121.918 395.48C121.534 396.024 121.342 396.88 121.342 398.048C121.342 399.232 121.55 400.08 121.966 400.592C122.398 401.088 122.974 401.336 123.694 401.336C124.83 401.336 125.494 400.688 125.686 399.392L129.358 400.568C129.182 401.608 128.598 402.48 127.606 403.184C126.63 403.888 125.334 404.24 123.718 404.24C121.75 404.24 120.174 403.696 118.99 402.608C117.822 401.504 117.238 399.968 117.238 398C117.238 396.688 117.502 395.568 118.03 394.64C118.574 393.712 119.318 393 120.262 392.504C121.206 392.008 122.302 391.76 123.55 391.76ZM138.176 396.392C138.176 395.832 138.016 395.392 137.696 395.072C137.392 394.736 136.976 394.568 136.448 394.568C135.92 394.568 135.464 394.704 135.08 394.976C134.712 395.232 134.456 395.696 134.312 396.368L130.856 395.552C131.08 394.4 131.672 393.48 132.632 392.792C133.592 392.104 134.944 391.76 136.688 391.76C138.448 391.76 139.808 392.152 140.768 392.936C141.744 393.704 142.232 394.832 142.232 396.32V400.712C142.232 401.336 142.512 401.648 143.072 401.648C143.36 401.648 143.592 401.616 143.768 401.552L143.528 403.88C143.048 404.104 142.464 404.216 141.776 404.216C141.024 404.216 140.376 404.072 139.832 403.784C139.288 403.48 138.92 403.024 138.728 402.416C138.392 403.04 137.856 403.504 137.12 403.808C136.4 404.096 135.632 404.24 134.816 404.24C133.584 404.24 132.6 403.96 131.864 403.4C131.144 402.824 130.784 402 130.784 400.928C130.784 400.064 131.04 399.352 131.552 398.792C132.08 398.216 132.904 397.816 134.024 397.592L138.176 396.728V396.392ZM134.816 400.544C134.816 400.896 134.944 401.16 135.2 401.336C135.456 401.512 135.76 401.6 136.112 401.6C136.656 401.6 137.136 401.44 137.552 401.12C137.968 400.784 138.176 400.264 138.176 399.56V398.888L136.232 399.296C135.752 399.392 135.392 399.536 135.152 399.728C134.928 399.904 134.816 400.176 134.816 400.544ZM153.501 392V394.904H149.925V399.728C149.925 400.304 150.061 400.72 150.333 400.976C150.621 401.216 151.013 401.336 151.509 401.336C151.893 401.336 152.221 401.296 152.493 401.216C152.765 401.12 153.021 400.984 153.261 400.808L153.693 403.328C153.293 403.6 152.781 403.824 152.157 404C151.549 404.16 150.933 404.24 150.309 404.24C148.933 404.24 147.845 403.952 147.045 403.376C146.261 402.784 145.861 401.792 145.845 400.4V394.904H143.781V392H145.845V389.312L149.925 388.184V392H153.501ZM157.426 390.608C156.594 390.608 155.986 390.456 155.602 390.152C155.234 389.832 155.05 389.336 155.05 388.664C155.05 387.976 155.234 387.48 155.602 387.176C155.986 386.856 156.594 386.696 157.426 386.696C158.242 386.696 158.842 386.856 159.226 387.176C159.61 387.48 159.802 387.976 159.802 388.664C159.802 389.336 159.61 389.832 159.226 390.152C158.842 390.456 158.242 390.608 157.426 390.608ZM159.466 392V404H155.386V392H159.466ZM168.082 391.76C169.346 391.76 170.45 392.008 171.394 392.504C172.354 393 173.098 393.712 173.626 394.64C174.17 395.568 174.442 396.688 174.442 398C174.442 399.312 174.17 400.432 173.626 401.36C173.098 402.288 172.354 403 171.394 403.496C170.45 403.992 169.346 404.24 168.082 404.24C166.834 404.24 165.73 403.992 164.77 403.496C163.826 403 163.082 402.288 162.538 401.36C162.01 400.432 161.746 399.312 161.746 398C161.746 396.688 162.01 395.568 162.538 394.64C163.082 393.712 163.826 393 164.77 392.504C165.73 392.008 166.834 391.76 168.082 391.76ZM168.082 394.664C167.378 394.664 166.826 394.928 166.426 395.456C166.042 395.968 165.85 396.816 165.85 398C165.85 399.168 166.042 400.016 166.426 400.544C166.826 401.072 167.378 401.336 168.082 401.336C168.802 401.336 169.354 401.072 169.738 400.544C170.138 400.016 170.338 399.168 170.338 398C170.338 396.816 170.138 395.968 169.738 395.456C169.354 394.928 168.802 394.664 168.082 394.664ZM176.737 404V392H180.385L180.505 394.424C180.873 393.544 181.409 392.88 182.113 392.432C182.817 391.984 183.649 391.76 184.609 391.76C185.841 391.76 186.841 392.12 187.609 392.84C188.377 393.56 188.761 394.616 188.761 396.008V404H184.681V397.088C184.681 396.256 184.521 395.68 184.201 395.36C183.881 395.04 183.473 394.88 182.977 394.88C182.385 394.88 181.873 395.088 181.441 395.504C181.025 395.92 180.817 396.632 180.817 397.64V404H176.737Z" fill="#183C8A"/>
<path d="M113.792 1001.46C113.328 1003.13 112.472 1004.34 111.224 1005.11C109.992 1005.86 108.536 1006.24 106.856 1006.24C105.24 1006.24 103.848 1005.92 102.68 1005.28C101.528 1004.62 100.64 1003.69 100.016 1002.47C99.392 1001.26 99.08 999.792 99.08 998.08C99.08 996.368 99.392 994.904 100.016 993.688C100.64 992.472 101.528 991.544 102.68 990.904C103.848 990.248 105.232 989.92 106.832 989.92C108.48 989.92 109.92 990.272 111.152 990.976C112.384 991.68 113.2 992.784 113.6 994.288L109.976 995.752C109.752 994.776 109.384 994.104 108.872 993.736C108.376 993.352 107.744 993.16 106.976 993.16C105.824 993.16 104.92 993.576 104.264 994.408C103.624 995.24 103.304 996.464 103.304 998.08C103.304 999.696 103.608 1000.92 104.216 1001.75C104.84 1002.58 105.768 1003 107 1003C107.768 1003 108.416 1002.79 108.944 1002.38C109.488 1001.94 109.856 1001.29 110.048 1000.41L113.792 1001.46ZM122.496 998.392C122.496 997.832 122.336 997.392 122.016 997.072C121.712 996.736 121.296 996.568 120.768 996.568C120.24 996.568 119.784 996.704 119.4 996.976C119.032 997.232 118.776 997.696 118.632 998.368L115.176 997.552C115.4 996.4 115.992 995.48 116.952 994.792C117.912 994.104 119.264 993.76 121.008 993.76C122.768 993.76 124.128 994.152 125.088 994.936C126.064 995.704 126.552 996.832 126.552 998.32V1002.71C126.552 1003.34 126.832 1003.65 127.392 1003.65C127.68 1003.65 127.912 1003.62 128.088 1003.55L127.848 1005.88C127.368 1006.1 126.784 1006.22 126.096 1006.22C125.344 1006.22 124.696 1006.07 124.152 1005.78C123.608 1005.48 123.24 1005.02 123.048 1004.42C122.712 1005.04 122.176 1005.5 121.44 1005.81C120.72 1006.1 119.952 1006.24 119.136 1006.24C117.904 1006.24 116.92 1005.96 116.184 1005.4C115.464 1004.82 115.104 1004 115.104 1002.93C115.104 1002.06 115.36 1001.35 115.872 1000.79C116.4 1000.22 117.224 999.816 118.344 999.592L122.496 998.728V998.392ZM119.136 1002.54C119.136 1002.9 119.264 1003.16 119.52 1003.34C119.776 1003.51 120.08 1003.6 120.432 1003.6C120.976 1003.6 121.456 1003.44 121.872 1003.12C122.288 1002.78 122.496 1002.26 122.496 1001.56V1000.89L120.552 1001.3C120.072 1001.39 119.712 1001.54 119.472 1001.73C119.248 1001.9 119.136 1002.18 119.136 1002.54ZM133.73 988.912V1001.92C133.73 1002.45 133.818 1002.82 133.994 1003.05C134.17 1003.27 134.466 1003.38 134.882 1003.38C135.122 1003.38 135.322 1003.37 135.482 1003.34C135.642 1003.3 135.834 1003.26 136.058 1003.19L135.794 1005.64C135.506 1005.82 135.13 1005.96 134.666 1006.07C134.202 1006.18 133.746 1006.24 133.298 1006.24C132.018 1006.24 131.09 1005.94 130.514 1005.35C129.938 1004.76 129.65 1003.79 129.65 1002.45V988.912H133.73ZM143.406 1006.24C141.406 1006.24 139.822 1005.7 138.654 1004.61C137.502 1003.52 136.926 1001.98 136.926 1000C136.926 998.688 137.19 997.568 137.718 996.64C138.262 995.696 138.998 994.984 139.926 994.504C140.87 994.008 141.966 993.76 143.214 993.76C144.478 993.76 145.55 994.008 146.43 994.504C147.326 994.984 148.006 995.656 148.47 996.52C148.934 997.368 149.166 998.344 149.166 999.448C149.166 999.752 149.15 1000.05 149.118 1000.34C149.102 1000.61 149.086 1000.84 149.07 1001.03H140.886C140.998 1001.86 141.27 1002.46 141.702 1002.83C142.134 1003.18 142.702 1003.36 143.406 1003.36C144.014 1003.36 144.494 1003.24 144.846 1003C145.214 1002.76 145.486 1002.42 145.662 1001.99L148.926 1003.07C148.702 1003.76 148.31 1004.34 147.75 1004.82C147.206 1005.29 146.55 1005.64 145.782 1005.88C145.03 1006.12 144.238 1006.24 143.406 1006.24ZM143.214 996.616C141.918 996.616 141.15 997.36 140.91 998.848H145.302C145.126 997.36 144.43 996.616 143.214 996.616ZM151.448 1006V994H155.096L155.216 996.424C155.584 995.544 156.12 994.88 156.824 994.432C157.528 993.984 158.36 993.76 159.32 993.76C160.552 993.76 161.552 994.12 162.32 994.84C163.088 995.56 163.472 996.616 163.472 998.008V1006H159.392V999.088C159.392 998.256 159.232 997.68 158.912 997.36C158.592 997.04 158.184 996.88 157.688 996.88C157.096 996.88 156.584 997.088 156.152 997.504C155.736 997.92 155.528 998.632 155.528 999.64V1006H151.448ZM170.747 1006.24C169.259 1006.24 168.059 1005.7 167.147 1004.61C166.251 1003.52 165.803 1002 165.803 1000.05C165.803 998.704 166.011 997.568 166.427 996.64C166.859 995.696 167.451 994.984 168.203 994.504C168.971 994.008 169.851 993.76 170.843 993.76C171.691 993.76 172.411 993.968 173.003 994.384C173.611 994.8 174.067 995.352 174.371 996.04V988.912H178.451V1006H174.803L174.659 1003.65C174.323 1004.45 173.811 1005.08 173.123 1005.54C172.451 1006.01 171.659 1006.24 170.747 1006.24ZM172.163 1003.24C172.835 1003.24 173.371 1002.96 173.771 1002.4C174.171 1001.84 174.371 1001.02 174.371 999.928C174.371 998.92 174.179 998.144 173.795 997.6C173.411 997.04 172.875 996.76 172.187 996.76C171.483 996.76 170.923 997.024 170.507 997.552C170.107 998.064 169.907 998.88 169.907 1000C169.907 1001.12 170.107 1001.94 170.507 1002.47C170.907 1002.98 171.459 1003.24 172.163 1003.24ZM188.074 998.392C188.074 997.832 187.914 997.392 187.594 997.072C187.29 996.736 186.874 996.568 186.346 996.568C185.818 996.568 185.362 996.704 184.978 996.976C184.61 997.232 184.354 997.696 184.21 998.368L180.754 997.552C180.978 996.4 181.57 995.48 182.53 994.792C183.49 994.104 184.842 993.76 186.586 993.76C188.346 993.76 189.706 994.152 190.666 994.936C191.642 995.704 192.13 996.832 192.13 998.32V1002.71C192.13 1003.34 192.41 1003.65 192.97 1003.65C193.258 1003.65 193.49 1003.62 193.666 1003.55L193.426 1005.88C192.946 1006.1 192.362 1006.22 191.674 1006.22C190.922 1006.22 190.274 1006.07 189.73 1005.78C189.186 1005.48 188.818 1005.02 188.626 1004.42C188.29 1005.04 187.754 1005.5 187.018 1005.81C186.298 1006.1 185.53 1006.24 184.714 1006.24C183.482 1006.24 182.498 1005.96 181.762 1005.4C181.042 1004.82 180.682 1004 180.682 1002.93C180.682 1002.06 180.938 1001.35 181.45 1000.79C181.978 1000.22 182.802 999.816 183.922 999.592L188.074 998.728V998.392ZM184.714 1002.54C184.714 1002.9 184.842 1003.16 185.098 1003.34C185.354 1003.51 185.658 1003.6 186.01 1003.6C186.554 1003.6 187.034 1003.44 187.45 1003.12C187.866 1002.78 188.074 1002.26 188.074 1001.56V1000.89L186.13 1001.3C185.65 1001.39 185.29 1001.54 185.05 1001.73C184.826 1001.9 184.714 1002.18 184.714 1002.54ZM195.277 1006V994H198.877L199.045 996.592C199.333 995.712 199.773 995.024 200.365 994.528C200.973 994.016 201.749 993.76 202.693 993.76C202.997 993.76 203.253 993.792 203.461 993.856C203.685 993.904 203.861 993.96 203.989 994.024L203.581 997.384C203.421 997.336 203.213 997.288 202.957 997.24C202.717 997.192 202.421 997.168 202.069 997.168C201.333 997.168 200.693 997.4 200.148 997.864C199.621 998.328 199.357 999.024 199.357 999.952V1006H195.277Z" fill="#4867AA"/>
<circle cx="130" cy="295" r="16" fill="#E74C3C"/>
<path d="M131.568 296.316C130.833 297.039 129.973 297.4 128.99 297.4C127.734 297.4 126.728 296.971 125.973 296.111C125.217 295.245 124.84 294.08 124.84 292.615C124.84 291.684 125.042 290.831 125.445 290.057C125.855 289.275 126.425 288.67 127.154 288.24C127.883 287.804 128.704 287.586 129.615 287.586C130.553 287.586 131.386 287.82 132.115 288.289C132.844 288.758 133.411 289.432 133.814 290.311C134.218 291.189 134.423 292.195 134.43 293.328V294.373C134.43 296.743 133.84 298.605 132.662 299.959C131.484 301.313 129.814 302.036 127.652 302.127L126.959 302.137V299.783L127.584 299.773C130.038 299.663 131.367 298.51 131.568 296.316ZM129.684 295.242C130.139 295.242 130.53 295.125 130.855 294.891C131.188 294.656 131.438 294.373 131.607 294.041V292.879C131.607 291.922 131.425 291.18 131.061 290.652C130.696 290.125 130.208 289.861 129.596 289.861C129.029 289.861 128.564 290.122 128.199 290.643C127.835 291.157 127.652 291.805 127.652 292.586C127.652 293.361 127.828 293.999 128.18 294.5C128.538 294.995 129.039 295.242 129.684 295.242Z" fill="white"/>
<defs>
<filter id="filter0_d" x="124" y="474" width="346" height="346" filterUnits="userSpaceOnUse" color-interpolation-filters="sRGB">
<feFlood flood-opacity="0" result="BackgroundImageFix"/>
<feColorMatrix in="SourceAlpha" type="matrix" values="0 0 0 0 0 0 0 0 0 0 0 0 0 0 0 0 0 0 127 0" result="hardAlpha"/>
<feOffset dx="-6" dy="10"/>
<feGaussianBlur stdDeviation="6"/>
<feComposite in2="hardAlpha" operator="out"/>
<feColorMatrix type="matrix" values="0 0 0 0 0.337255 0 0 0 0 0.380392 0 0 0 0 0.682353 0 0 0 0.2 0"/>
<feBlend mode="normal" in2="BackgroundImageFix" result="effect1_dropShadow"/>
<feBlend mode="normal" in="SourceGraphic" in2="effect1_dropShadow" result="shape"/>
</filter>
<filter id="filter1_d" x="399" y="196" width="324" height="324" filterUnits="userSpaceOnUse" color-interpolation-filters="sRGB">
<feFlood flood-opacity="0" result="BackgroundImageFix"/>
<feColorMatrix in="SourceAlpha" type="matrix" values="0 0 0 0 0 0 0 0 0 0 0 0 0 0 0 0 0 0 127 0" result="hardAlpha"/>
<feOffset dx="-6" dy="10"/>
<feGaussianBlur stdDeviation="6"/>
<feComposite in2="hardAlpha" operator="out"/>
<feColorMatrix type="matrix" values="0 0 0 0 0.337255 0 0 0 0 0.380392 0 0 0 0 0.682353 0 0 0 0.2 0"/>
<feBlend mode="normal" in2="BackgroundImageFix" result="effect1_dropShadow"/>
<feBlend mode="normal" in="SourceGraphic" in2="effect1_dropShadow" result="shape"/>
</filter>
<filter id="filter2_d" x="772" y="48" width="228" height="228" filterUnits="userSpaceOnUse" color-interpolation-filters="sRGB">
<feFlood flood-opacity="0" result="BackgroundImageFix"/>
<feColorMatrix in="SourceAlpha" type="matrix" values="0 0 0 0 0 0 0 0 0 0 0 0 0 0 0 0 0 0 127 0" result="hardAlpha"/>
<feOffset dx="-6" dy="10"/>
<feGaussianBlur stdDeviation="6"/>
<feComposite in2="hardAlpha" operator="out"/>
<feColorMatrix type="matrix" values="0 0 0 0 0.337255 0 0 0 0 0.380392 0 0 0 0 0.682353 0 0 0 0.2 0"/>
<feBlend mode="normal" in2="BackgroundImageFix" result="effect1_dropShadow"/>
<feBlend mode="normal" in="SourceGraphic" in2="effect1_dropShadow" result="shape"/>
</filter>
<filter id="filter3_d" x="32" y="840" width="228" height="228" filterUnits="userSpaceOnUse" color-interpolation-filters="sRGB">
<feFlood flood-opacity="0" result="BackgroundImageFix"/>
<feColorMatrix in="SourceAlpha" type="matrix" values="0 0 0 0 0 0 0 0 0 0 0 0 0 0 0 0 0 0 127 0" result="hardAlpha"/>
<feOffset dx="-6" dy="10"/>
<feGaussianBlur stdDeviation="6"/>
<feComposite in2="hardAlpha" operator="out"/>
<feColorMatrix type="matrix" values="0 0 0 0 0.337255 0 0 0 0 0.380392 0 0 0 0 0.682353 0 0 0 0.2 0"/>
<feBlend mode="normal" in2="BackgroundImageFix" result="effect1_dropShadow"/>
<feBlend mode="normal" in="SourceGraphic" in2="effect1_dropShadow" result="shape"/>
</filter>
<filter id="filter4_d" x="152" y="0" width="234" height="234" filterUnits="userSpaceOnUse" color-interpolation-filters="sRGB">
<feFlood flood-opacity="0" result="BackgroundImageFix"/>
<feColorMatrix in="SourceAlpha" type="matrix" values="0 0 0 0 0 0 0 0 0 0 0 0 0 0 0 0 0 0 127 0" result="hardAlpha"/>
<feOffset dx="-6" dy="10"/>
<feGaussianBlur stdDeviation="6"/>
<feComposite in2="hardAlpha" operator="out"/>
<feColorMatrix type="matrix" values="0 0 0 0 0.337255 0 0 0 0 0.380392 0 0 0 0 0.682353 0 0 0 0.2 0"/>
<feBlend mode="normal" in2="BackgroundImageFix" result="effect1_dropShadow"/>
<feBlend mode="normal" in="SourceGraphic" in2="effect1_dropShadow" result="shape"/>
</filter>
<filter id="filter5_d" x="787" y="304" width="292" height="292" filterUnits="userSpaceOnUse" color-interpolation-filters="sRGB">
<feFlood flood-opacity="0" result="BackgroundImageFix"/>
<feColorMatrix in="SourceAlpha" type="matrix" values="0 0 0 0 0 0 0 0 0 0 0 0 0 0 0 0 0 0 127 0" result="hardAlpha"/>
<feOffset dx="-6" dy="10"/>
<feGaussianBlur stdDeviation="6"/>
<feComposite in2="hardAlpha" operator="out"/>
<feColorMatrix type="matrix" values="0 0 0 0 0.337255 0 0 0 0 0.380392 0 0 0 0 0.682353 0 0 0 0.2 0"/>
<feBlend mode="normal" in2="BackgroundImageFix" result="effect1_dropShadow"/>
<feBlend mode="normal" in="SourceGraphic" in2="effect1_dropShadow" result="shape"/>
</filter>
<filter id="filter6_d" x="435" y="809" width="256" height="256" filterUnits="userSpaceOnUse" color-interpolation-filters="sRGB">
<feFlood flood-opacity="0" result="BackgroundImageFix"/>
<feColorMatrix in="SourceAlpha" type="matrix" values="0 0 0 0 0 0 0 0 0 0 0 0 0 0 0 0 0 0 127 0" result="hardAlpha"/>
<feOffset dx="-6" dy="10"/>
<feGaussianBlur stdDeviation="6"/>
<feComposite in2="hardAlpha" operator="out"/>
<feColorMatrix type="matrix" values="0 0 0 0 0.337255 0 0 0 0 0.380392 0 0 0 0 0.682353 0 0 0 0.2 0"/>
<feBlend mode="normal" in2="BackgroundImageFix" result="effect1_dropShadow"/>
<feBlend mode="normal" in="SourceGraphic" in2="effect1_dropShadow" result="shape"/>
</filter>
<filter id="filter7_d" x="798" y="681" width="281" height="281" filterUnits="userSpaceOnUse" color-interpolation-filters="sRGB">
<feFlood flood-opacity="0" result="BackgroundImageFix"/>
<feColorMatrix in="SourceAlpha" type="matrix" values="0 0 0 0 0 0 0 0 0 0 0 0 0 0 0 0 0 0 127 0" result="hardAlpha"/>
<feOffset dx="-6" dy="10"/>
<feGaussianBlur stdDeviation="6"/>
<feComposite in2="hardAlpha" operator="out"/>
<feColorMatrix type="matrix" values="0 0 0 0 0.337255 0 0 0 0 0.380392 0 0 0 0 0.682353 0 0 0 0.2 0"/>
<feBlend mode="normal" in2="BackgroundImageFix" result="effect1_dropShadow"/>
<feBlend mode="normal" in="SourceGraphic" in2="effect1_dropShadow" result="shape"/>
</filter>
<filter id="filter8_d" x="0" y="240" width="228" height="228" filterUnits="userSpaceOnUse" color-interpolation-filters="sRGB">
<feFlood flood-opacity="0" result="BackgroundImageFix"/>
<feColorMatrix in="SourceAlpha" type="matrix" values="0 0 0 0 0 0 0 0 0 0 0 0 0 0 0 0 0 0 127 0" result="hardAlpha"/>
<feOffset dx="-6" dy="10"/>
<feGaussianBlur stdDeviation="6"/>
<feComposite in2="hardAlpha" operator="out"/>
<feColorMatrix type="matrix" values="0 0 0 0 0.337255 0 0 0 0 0.380392 0 0 0 0 0.682353 0 0 0 0.2 0"/>
<feBlend mode="normal" in2="BackgroundImageFix" result="effect1_dropShadow"/>
<feBlend mode="normal" in="SourceGraphic" in2="effect1_dropShadow" result="shape"/>
</filter>
</defs>
</svg>
